<svg width="250" height="200" viewBox="0 0 250 200" fill="none" xmlns="http://www.w3.org/2000/svg">
<path d="M153.159 48.2426C153.159 48.2738 153.16 48.3047 153.16 48.3366V48.3088C153.161 48.2869 153.159 48.2648 153.159 48.2426ZM152.884 43.6243C152.909 43.8385 152.926 44.0571 152.947 44.2719C152.928 44.0571 152.909 43.8385 152.884 43.6243ZM152.478 40.9816C152.534 41.2814 152.59 41.5803 152.639 41.8806C152.591 41.5791 152.534 41.2814 152.478 40.9816ZM148.951 55.0365V46.6808C148.951 30.9864 140.09 17.1512 127.385 8.9913C138.028 14.2226 146.641 23.3311 150.677 34.3838C144.28 16.8182 126.34 4.14502 107.046 4.14502C82.9413 4.14502 60.1064 23.9175 60.1064 48.3091V108.166H70.5814V50.7766C70.5814 32.0923 84.7031 16.9469 103.166 16.9469C109.111 16.9469 113.071 18.5254 117.879 21.2789C130.503 25.7939 139.55 37.9698 139.55 52.2894V58.4232C139.55 60.4555 140.651 62.2528 142.341 63.369C146.023 63.1261 148.951 59.4949 148.951 55.0365ZM153.065 45.6615C153.081 45.8857 153.094 46.1099 153.105 46.3352C153.094 46.1099 153.079 45.8857 153.065 45.6615ZM152.074 39.0363C152.151 39.3667 152.22 39.6997 152.292 40.0327C152.222 39.6997 152.151 39.3664 152.074 39.0363Z" fill="#ECECEC"/>
<path d="M70.5814 50.7765V108.193H75.3665V52.3171C75.3665 34.1531 89.0951 19.4281 107.046 19.4281C110.892 19.4281 114.58 20.1081 118.003 21.3486L117.879 21.2788C113.07 18.5253 109.111 16.9468 103.166 16.9468C84.7032 16.9468 70.5814 32.0922 70.5814 50.7765ZM153.105 46.3351C153.094 46.1098 153.081 45.8856 153.065 45.6614C153.034 45.1976 152.995 44.7343 152.947 44.2718C152.926 44.057 152.909 43.8384 152.884 43.6242C152.815 43.0412 152.733 42.4599 152.639 41.8805C152.59 41.5802 152.534 41.2813 152.478 40.9815C152.42 40.6645 152.358 40.3482 152.292 40.0326C152.22 39.6996 152.151 39.3666 152.074 39.0362C152.016 38.7969 151.952 38.5584 151.891 38.3196C151.719 37.6436 151.53 36.9724 151.323 36.3066C151.273 36.1458 151.226 35.9858 151.174 35.8259C151.037 35.4025 150.893 34.9813 150.743 34.5626C150.722 34.5025 150.699 34.4432 150.677 34.3837C146.641 23.3313 138.028 14.2225 127.385 8.99121C140.09 17.1511 148.951 30.9863 148.951 46.6807V55.0364C148.951 59.4945 146.023 63.1258 142.341 63.3689C142.33 63.3695 142.318 63.3721 142.306 63.3733C143.438 64.1316 144.836 64.5851 146.356 64.5851C150.114 64.5851 153.161 60.9478 153.161 56.4608V48.3365C153.161 48.3047 153.159 48.2737 153.159 48.2425C153.156 47.6063 153.138 46.9704 153.105 46.3351Z" fill="#A7A7A7"/>
<path d="M147.579 65.787C142.567 65.787 138.49 62.0034 138.49 57.353V51.1185C138.49 33.9055 124.65 19.9017 107.639 19.9017C92.2671 19.9017 80.0554 31.6776 78.6028 47.9018C78.4941 49.1125 77.436 50.003 76.2407 49.8947C75.9563 49.8687 75.6798 49.7862 75.4269 49.6521C75.174 49.5179 74.9497 49.3346 74.7668 49.1127C74.5839 48.8908 74.446 48.6346 74.3609 48.3588C74.2759 48.083 74.2454 47.7929 74.2712 47.5051C75.9321 28.9603 89.965 15.5005 107.639 15.5005C127.049 15.5005 142.84 31.4786 142.84 51.1185V57.353C142.84 59.5767 144.966 61.3858 147.579 61.3858C150.194 61.3858 152.322 58.6687 152.322 55.3294V47.0755C152.322 43.3392 151.779 39.6152 150.71 36.0064C150.628 35.7296 150.601 35.4392 150.63 35.1516C150.659 34.8641 150.743 34.5852 150.879 34.3308C151.014 34.0764 151.198 33.8514 151.419 33.6688C151.64 33.4862 151.895 33.3496 152.169 33.2666C153.32 32.9164 154.531 33.5792 154.876 34.7423C156.064 38.7432 156.669 42.8981 156.671 47.0758V55.3297C156.671 61.0954 152.592 65.787 147.579 65.787Z" fill="black"/>
<path d="M78.4606 110.095H59.4705V47.0753C59.4705 28.7152 71.6394 11.2474 89.7518 3.60815C90.2827 3.39173 90.8764 3.39575 91.4044 3.61935C91.9323 3.84295 92.3519 4.26811 92.5721 4.80264C92.7923 5.33717 92.7954 5.93799 92.5808 6.47483C92.3661 7.01167 91.951 7.44126 91.4254 7.67046C74.9139 14.6343 63.8199 30.4699 63.8199 47.0753V105.694H74.1114V60.0657C74.1207 59.4883 74.3539 58.9378 74.7607 58.5328C75.1675 58.1278 75.7153 57.9008 76.286 57.9008C76.8567 57.9008 77.4045 58.1278 77.8113 58.5328C78.2181 58.9378 78.4513 59.4883 78.4606 60.0657V110.095ZM136.906 14.6784C136.426 14.6788 135.958 14.5174 135.578 14.2195C127.479 7.8882 117.556 4.40147 107.639 4.40147C105.504 4.40147 103.365 4.56346 101.282 4.88336C100.099 5.06432 98.9859 4.23948 98.8053 3.03754C98.7188 2.46049 98.8625 1.87232 99.2045 1.40241C99.5466 0.932493 100.059 0.619329 100.629 0.531798C102.95 0.177251 105.293 -0.00051574 107.639 1.12384e-06C118.513 1.12384e-06 129.379 3.81305 138.237 10.736C138.596 11.0169 138.86 11.4045 138.99 11.8443C139.121 12.2842 139.112 12.7544 138.965 13.189C138.819 13.6236 138.541 14.0009 138.172 14.2679C137.803 14.535 137.36 14.6785 136.906 14.6784ZM147.537 26.2319C147.177 26.2323 146.821 26.1417 146.503 25.9684C146.186 25.795 145.916 25.5443 145.718 25.239C145.475 24.8645 145.234 24.4894 144.993 24.1135C143.643 22.0076 143.189 21.2984 141.1 19.2999C140.683 18.8984 140.439 18.3459 140.424 17.7633C140.409 17.1808 140.622 16.6159 141.018 16.1926C141.414 15.7692 141.959 15.5219 142.535 15.505C143.111 15.488 143.669 15.7028 144.089 16.1021C146.555 18.4619 147.209 19.4826 148.642 21.7187C148.856 22.0523 149.09 22.4174 149.353 22.8228C149.51 23.0644 149.618 23.3348 149.672 23.6187C149.725 23.9026 149.723 24.1944 149.665 24.4773C149.607 24.7603 149.494 25.0289 149.334 25.2679C149.173 25.5069 148.968 25.7115 148.729 25.87C148.375 26.1064 147.961 26.2323 147.537 26.2319Z" fill="black"/>
<path d="M172.871 188.453C172.871 193.368 169.094 197.353 164.436 197.353H56.1792C51.5206 197.353 47.7433 193.368 47.7433 188.453V92.0431C47.7433 87.1282 51.5206 83.1443 56.1792 83.1443H164.436C169.094 83.1443 172.871 87.1282 172.871 92.0431V188.453Z" fill="#FDD72C"/>
<path d="M164.224 82.9907H141.51C146.366 82.9907 150.303 86.9736 150.303 91.8873V188.273C150.303 193.186 146.366 197.171 141.51 197.171H164.224C169.08 197.171 173.017 193.187 173.017 188.273V91.8873C173.017 86.9736 169.08 82.9907 164.224 82.9907Z" fill="#F97C21"/>
<path d="M84.7675 145.085C84.7675 146.264 85.2306 147.396 86.0551 148.23C86.8795 149.064 87.9977 149.533 89.1637 149.533C90.3296 149.533 91.4478 149.064 92.2723 148.23C93.0967 147.396 93.5599 146.264 93.5599 145.085C93.5599 143.905 93.0967 142.773 92.2723 141.939C91.4478 141.105 90.3296 140.636 89.1637 140.636C87.9977 140.636 86.8795 141.105 86.0551 141.939C85.2306 142.773 84.7675 143.905 84.7675 145.085Z" fill="black"/>
<path d="M127.265 145.085C127.265 146.264 127.728 147.396 128.552 148.23C129.377 149.064 130.495 149.533 131.661 149.533C132.827 149.533 133.945 149.064 134.77 148.23C135.594 147.396 136.057 146.264 136.057 145.085C136.057 143.905 135.594 142.773 134.77 141.939C133.945 141.105 132.827 140.636 131.661 140.636C130.495 140.636 129.377 141.105 128.552 141.939C127.728 142.773 127.265 143.905 127.265 145.085Z" fill="black"/>
<path d="M119.855 151.968C119.927 151.31 119.389 150.771 118.734 150.771H99.7722C99.1183 150.771 98.5815 151.31 98.6524 151.968C99.2412 157.365 103.763 161.563 109.254 161.563C114.745 161.563 119.267 157.365 119.855 151.968Z" fill="black"/>
<path d="M112.693 158.293C112.693 159.266 111.09 160.057 109.114 160.057C107.136 160.057 105.532 159.266 105.532 158.293C105.532 157.319 107.136 156.529 109.114 156.529C111.09 156.529 112.693 157.319 112.693 158.293Z" fill="#FD631F"/>
<path d="M223.807 47.1503C220.89 47.1503 218.517 44.7502 218.517 41.8005C218.517 38.8497 220.89 36.449 223.807 36.449C226.722 36.449 229.095 38.8497 229.095 41.8005C229.095 44.7502 226.722 47.1503 223.807 47.1503ZM223.807 37.7064C221.575 37.7064 219.76 39.5432 219.76 41.8005C219.76 44.057 221.575 45.8929 223.807 45.8929C226.037 45.8929 227.852 44.057 227.852 41.8005C227.852 39.5432 226.037 37.7064 223.807 37.7064ZM201.415 39.2636C201.135 39.2635 200.867 39.1512 200.67 38.9514C200.472 38.7516 200.361 38.4806 200.361 38.1979V37.13C200.361 36.4878 199.847 35.968 199.211 35.968C198.906 35.9679 198.614 36.0903 198.398 36.3082C198.183 36.5261 198.062 36.8217 198.061 37.13V38.1979C198.061 38.3379 198.034 38.4765 197.981 38.6058C197.928 38.7351 197.851 38.8526 197.753 38.9516C197.655 39.0505 197.539 39.129 197.411 39.1825C197.283 39.2361 197.146 39.2636 197.008 39.2636H195.955C195.802 39.2611 195.651 39.2894 195.509 39.3468C195.367 39.4042 195.238 39.4895 195.13 39.5978C195.021 39.7061 194.935 39.8352 194.876 39.9775C194.817 40.1199 194.786 40.2728 194.786 40.4271C194.786 40.5815 194.817 40.7343 194.876 40.8767C194.935 41.0191 195.021 41.1482 195.13 41.2565C195.238 41.3648 195.367 41.4501 195.509 41.5075C195.651 41.5648 195.802 41.5931 195.955 41.5907H197.008C197.146 41.5907 197.283 41.6183 197.411 41.6718C197.539 41.7254 197.655 41.8039 197.753 41.9029C197.851 42.0019 197.928 42.1194 197.981 42.2487C198.034 42.378 198.061 42.5166 198.061 42.6566V43.7225C198.061 44.3647 198.577 44.8854 199.211 44.8854C199.362 44.8856 199.511 44.8556 199.651 44.7973C199.79 44.7389 199.917 44.6533 200.024 44.5453C200.131 44.4373 200.216 44.309 200.274 44.1679C200.331 44.0267 200.361 43.8754 200.361 43.7225V42.6566C200.361 42.3739 200.472 42.1029 200.67 41.903C200.867 41.7031 201.135 41.5908 201.415 41.5907H202.469C202.774 41.5904 203.067 41.4676 203.282 41.2493C203.498 41.031 203.619 40.735 203.619 40.4264C203.619 39.7843 203.103 39.2636 202.469 39.2636H201.415Z" fill="#FD5C1E"/>
<path d="M246.319 20.2524C246.088 20.2526 245.859 20.2066 245.645 20.1171C245.432 20.0277 245.238 19.8964 245.074 19.731C244.911 19.5656 244.781 19.3691 244.692 19.153C244.604 18.9368 244.559 18.7051 244.559 18.4711V16.6889C244.558 16.1734 244.356 15.6792 243.995 15.3148C243.635 14.9504 243.147 14.7457 242.637 14.7456C242.128 14.7459 241.64 14.9508 241.279 15.3151C240.919 15.6795 240.717 16.1736 240.717 16.6889V18.4711C240.717 18.7051 240.671 18.9368 240.583 19.1529C240.494 19.3691 240.364 19.5655 240.201 19.731C240.037 19.8964 239.843 20.0276 239.63 20.1171C239.416 20.2065 239.187 20.2525 238.956 20.2524H237.194C236.942 20.2525 236.692 20.3029 236.459 20.4006C236.226 20.4984 236.014 20.6417 235.836 20.8224C235.657 21.003 235.516 21.2174 235.42 21.4533C235.323 21.6893 235.274 21.9421 235.274 22.1975C235.274 22.4526 235.323 22.7053 235.42 22.941C235.516 23.1768 235.658 23.391 235.836 23.5714C236.015 23.7518 236.226 23.8949 236.459 23.9925C236.692 24.0901 236.942 24.1402 237.194 24.1402H238.956C239.187 24.1401 239.416 24.1861 239.63 24.2755C239.843 24.365 240.037 24.4963 240.201 24.6617C240.365 24.8272 240.494 25.0236 240.583 25.2398C240.671 25.456 240.717 25.6878 240.717 25.9218V27.7051C240.717 28.2203 240.92 28.7142 241.28 29.0783C241.64 29.4424 242.128 29.647 242.637 29.647C243.146 29.6472 243.635 29.4428 243.995 29.0786C244.356 28.7145 244.558 28.2204 244.559 27.7051V25.9218C244.559 25.6878 244.604 25.456 244.692 25.2398C244.781 25.0236 244.91 24.8271 245.074 24.6617C245.237 24.4962 245.432 24.365 245.645 24.2755C245.859 24.186 246.088 24.14 246.319 24.1402H248.08C248.332 24.1404 248.582 24.0903 248.815 23.9928C249.048 23.8952 249.26 23.7521 249.438 23.5717C249.617 23.3912 249.758 23.177 249.854 22.9412C249.951 22.7054 250 22.4526 250 22.1975C250 21.9421 249.951 21.6892 249.855 21.4532C249.758 21.2173 249.617 21.0028 249.439 20.8221C249.26 20.6415 249.049 20.4982 248.815 20.4004C248.582 20.3027 248.332 20.2524 248.08 20.2524H246.319Z" fill="#FED62C"/>
<path d="M174.394 53.7117C174.271 53.7116 174.149 53.7362 174.035 53.784C173.921 53.8317 173.818 53.9018 173.73 53.9901C173.643 54.0784 173.574 54.1832 173.528 54.2985C173.481 54.4138 173.457 54.5373 173.457 54.662L173.455 58.8379C173.455 59.3609 173.876 59.7859 174.396 59.787C174.644 59.7863 174.882 59.686 175.058 59.5081C175.234 59.3303 175.333 59.0893 175.333 58.8379V54.662C175.333 54.4099 175.234 54.1682 175.058 53.99C174.882 53.8118 174.643 53.7117 174.394 53.7117ZM174.394 68.1405C174.145 68.1407 173.906 68.2408 173.73 68.4187C173.554 68.5966 173.455 68.8379 173.455 69.0897L173.457 73.2667C173.457 73.5184 173.556 73.7598 173.732 73.9378C173.908 74.1159 174.146 74.2159 174.395 74.2159C174.644 74.2159 174.882 74.1159 175.058 73.9378C175.234 73.7598 175.333 73.5184 175.333 73.2667V69.0897C175.333 68.9649 175.309 68.8414 175.261 68.7262C175.214 68.611 175.145 68.5064 175.058 68.4182C174.971 68.3301 174.867 68.2602 174.753 68.2126C174.639 68.1649 174.517 68.1404 174.394 68.1405ZM170.149 61.01C170.236 61.0983 170.34 61.1684 170.454 61.2162C170.567 61.264 170.689 61.2886 170.813 61.2886C170.936 61.2886 171.058 61.264 171.172 61.2162C171.286 61.1684 171.389 61.0983 171.476 61.01C171.563 60.9219 171.632 60.8173 171.68 60.7022C171.727 60.587 171.751 60.4635 171.751 60.3388C171.751 60.2141 171.727 60.0906 171.68 59.9755C171.632 59.8603 171.563 59.7557 171.476 59.6677L168.557 56.7145C168.38 56.5423 168.143 56.4472 167.898 56.4496C167.652 56.452 167.417 56.5518 167.244 56.7274C167.07 56.9031 166.971 57.1407 166.969 57.3892C166.966 57.6376 167.06 57.8772 167.23 58.0565L170.149 61.01ZM178.638 66.9175C178.552 66.8292 178.448 66.7591 178.335 66.7113C178.221 66.6635 178.099 66.6388 177.976 66.6388C177.853 66.6388 177.731 66.6635 177.617 66.7113C177.504 66.7591 177.401 66.8292 177.314 66.9175C177.227 67.0056 177.157 67.1103 177.11 67.2254C177.063 67.3406 177.039 67.464 177.039 67.5887C177.039 67.7134 177.063 67.8368 177.11 67.952C177.157 68.0671 177.227 68.1718 177.314 68.2599L180.233 71.213C180.411 71.3834 180.647 71.4768 180.891 71.4734C181.136 71.4701 181.37 71.3701 181.542 71.195C181.715 71.0199 181.814 70.7833 181.817 70.5358C181.82 70.2883 181.727 70.0495 181.558 69.8701L178.638 66.9175ZM170.266 63.9641C170.266 63.8395 170.242 63.716 170.195 63.6009C170.148 63.4858 170.079 63.3811 169.992 63.293C169.905 63.2049 169.801 63.1351 169.687 63.0874C169.574 63.0398 169.452 63.0153 169.328 63.0155H165.201C165.078 63.0152 164.956 63.0396 164.842 63.0872C164.728 63.1348 164.624 63.2046 164.537 63.2927C164.45 63.3808 164.381 63.4855 164.334 63.6007C164.287 63.7159 164.262 63.8394 164.262 63.9641C164.263 64.2158 164.362 64.4572 164.538 64.6352C164.714 64.8131 164.952 64.9131 165.201 64.9132H169.328C169.452 64.9133 169.574 64.8888 169.687 64.8411C169.801 64.7934 169.905 64.7235 169.992 64.6354C170.079 64.5472 170.148 64.4425 170.195 64.3273C170.242 64.2121 170.266 64.0887 170.266 63.9641ZM183.587 63.0155H179.459C179.336 63.0155 179.214 63.0401 179.101 63.0878C178.987 63.1355 178.883 63.2055 178.796 63.2936C178.709 63.3818 178.64 63.4864 178.593 63.6015C178.546 63.7167 178.522 63.8401 178.522 63.9646C178.522 64.0893 178.546 64.2127 178.594 64.3279C178.641 64.4431 178.71 64.5477 178.797 64.6359C178.884 64.724 178.987 64.7938 179.101 64.8414C179.215 64.889 179.337 64.9134 179.46 64.9132H183.587C183.71 64.9133 183.832 64.8888 183.946 64.8411C184.06 64.7935 184.164 64.7236 184.251 64.6354C184.338 64.5473 184.407 64.4426 184.454 64.3274C184.502 64.2122 184.526 64.0888 184.526 63.9641C184.526 63.8393 184.502 63.7156 184.455 63.6003C184.408 63.485 184.339 63.3802 184.252 63.292C184.164 63.2038 184.061 63.134 183.947 63.0865C183.833 63.0391 183.711 63.0149 183.587 63.0155ZM170.149 66.9175L167.23 69.8701C167.054 70.0483 166.955 70.2898 166.955 70.5416C166.955 70.7934 167.054 71.0349 167.23 71.213C167.317 71.3013 167.42 71.3714 167.534 71.4192C167.648 71.467 167.77 71.4916 167.894 71.4916C168.017 71.4916 168.139 71.467 168.253 71.4192C168.367 71.3714 168.47 71.3013 168.557 71.213L171.476 68.2599C171.563 68.1718 171.632 68.0672 171.68 67.952C171.727 67.8369 171.751 67.7134 171.751 67.5887C171.751 67.464 171.727 67.3405 171.68 67.2253C171.632 67.1102 171.563 67.0056 171.476 66.9175C171.389 66.8292 171.286 66.7592 171.172 66.7113C171.058 66.6635 170.936 66.6389 170.813 66.6389C170.689 66.6389 170.567 66.6635 170.454 66.7113C170.34 66.7592 170.236 66.8292 170.149 66.9175ZM178.64 61.01L181.558 58.0565C181.734 57.8784 181.832 57.6371 181.832 57.3855C181.832 57.1339 181.734 56.8925 181.558 56.7145C181.471 56.6261 181.368 56.556 181.254 56.5082C181.14 56.4604 181.019 56.4357 180.895 56.4357C180.772 56.4357 180.65 56.4604 180.537 56.5082C180.423 56.556 180.32 56.6261 180.233 56.7145L177.313 59.6677C177.226 59.7558 177.157 59.8604 177.11 59.9755C177.063 60.0907 177.039 60.2142 177.039 60.3388C177.039 60.4635 177.063 60.5869 177.11 60.7021C177.157 60.8173 177.226 60.9219 177.313 61.01C177.4 61.0984 177.504 61.1686 177.618 61.2165C177.731 61.2644 177.854 61.2891 177.977 61.2891C178.1 61.2891 178.222 61.2644 178.336 61.2165C178.45 61.1686 178.553 61.0984 178.64 61.01Z" fill="#FED62C"/>
<path d="M238.729 200H225.448C223.904 200 222.652 198.733 222.652 197.171C222.652 195.608 223.904 194.341 225.448 194.341H238.729C240.273 194.341 241.525 195.608 241.525 197.171C241.525 198.733 240.273 200 238.729 200Z" fill="black"/>
<path d="M212.259 200H204.383C202.838 200 201.586 198.733 201.586 197.171C201.586 195.608 202.838 194.341 204.383 194.341H212.259C213.803 194.341 215.055 195.608 215.055 197.171C215.055 198.733 213.803 200 212.259 200Z" fill="black"/>
<path d="M190.461 200H32.7461C31.2018 200 29.95 198.733 29.95 197.171C29.95 195.608 31.2018 194.341 32.7461 194.341H190.461C192.005 194.341 193.257 195.608 193.257 197.171C193.257 198.733 192.005 200 190.461 200Z" fill="black"/>
<path d="M14.7027 200H2.7962C1.25186 200 0 198.733 0 197.171C0 195.608 1.25186 194.341 2.7962 194.341H14.703C16.2473 194.341 17.4992 195.608 17.4992 197.171C17.4992 198.733 16.247 200 14.7027 200Z" fill="black"/>
<path d="M198.992 79.2733C198.992 79.452 198.958 79.629 198.89 79.7941C198.823 79.9593 198.724 80.1093 198.599 80.2357C198.474 80.362 198.325 80.4623 198.162 80.5306C197.999 80.599 197.824 80.6341 197.648 80.634C197.291 80.634 196.949 80.4908 196.697 80.2357C196.445 79.9807 196.304 79.6347 196.304 79.2741C196.304 78.9134 196.445 78.5674 196.697 78.3124C196.949 78.0573 197.291 77.9141 197.648 77.9141C197.824 77.9139 197.999 77.949 198.162 78.0172C198.325 78.0854 198.473 78.1855 198.598 78.3118C198.723 78.438 198.822 78.5879 198.89 78.7529C198.957 78.9179 198.992 79.0947 198.992 79.2733Z" fill="#FD5C1E"/>
<path d="M213.253 63.5655C213.255 63.77 213.218 63.9729 213.142 64.1625C213.067 64.3522 212.955 64.5248 212.813 64.6704C212.671 64.8159 212.502 64.9314 212.316 65.0103C212.13 65.0892 211.93 65.1298 211.728 65.1298C211.525 65.1297 211.325 65.0891 211.139 65.0102C210.953 64.9313 210.784 64.8157 210.642 64.6701C210.5 64.5246 210.388 64.352 210.313 64.1623C210.237 63.9726 210.2 63.7697 210.203 63.5652C210.208 63.1597 210.371 62.7727 210.657 62.4879C210.942 62.2031 211.327 62.0434 211.728 62.0435C212.129 62.0435 212.513 62.2032 212.799 62.4881C213.084 62.7729 213.247 63.16 213.253 63.5655ZM187.799 14.0374C187.799 14.6518 187.558 15.241 187.129 15.6756C186.699 16.1101 186.117 16.3543 185.51 16.3545C184.907 16.3477 184.331 16.1006 183.907 15.6668C183.483 15.233 183.245 14.6476 183.245 14.0375C183.245 13.4275 183.483 12.842 183.907 12.4082C184.331 11.9744 184.907 11.7273 185.51 11.7205C186.773 11.7205 187.799 12.7589 187.799 14.0374Z" fill="#FDD72C"/>
<path d="M209.086 15.0394C205.822 15.0394 203.167 12.3524 203.167 9.0501C203.167 5.74637 205.822 3.05908 209.086 3.05908C212.35 3.05908 215.006 5.74666 215.006 9.0501C215.006 12.3527 212.35 15.0394 209.086 15.0394ZM209.086 4.94547C206.85 4.94547 205.031 6.7869 205.031 9.05039C205.031 11.3127 206.85 13.1536 209.086 13.1536C211.323 13.1536 213.142 11.3127 213.142 9.05039C213.142 6.78661 211.323 4.94547 209.086 4.94547Z" fill="#2BA9FC"/>
<path d="M159.828 200H55.7832C46.9692 200 39.7981 192.744 39.7981 183.825V96.3359C39.7981 87.4171 46.9692 80.1614 55.7832 80.1614H159.828C168.642 80.1614 175.812 87.4171 175.812 96.3359V133.776C175.812 135.338 174.561 136.605 173.016 136.605C171.472 136.605 170.22 135.338 170.22 133.776V96.3359C170.22 90.5372 165.558 85.8199 159.828 85.8199H55.7832C50.0524 85.8199 45.3902 90.5372 45.3902 96.3359V183.825C45.3902 189.624 50.0524 194.341 55.7832 194.341H159.828C165.558 194.341 170.22 189.624 170.22 183.825V170.847C170.22 169.284 171.472 168.018 173.016 168.018C174.561 168.018 175.813 169.284 175.813 170.847V183.825C175.812 192.744 168.642 200 159.828 200Z" fill="black"/>
<path d="M173.017 161.813C172.275 161.813 171.564 161.515 171.039 160.984C170.515 160.454 170.22 159.734 170.22 158.983V146.009C170.22 144.447 171.472 143.18 173.017 143.18C174.561 143.18 175.813 144.447 175.813 146.009V158.984C175.812 160.546 174.561 161.813 173.017 161.813Z" fill="black"/>
</svg>
