<svg width="25" height="25" viewBox="0 0 25 25" fill="none" xmlns="http://www.w3.org/2000/svg">
<path d="M25 22.857C25 24.0405 24.3384 24.9999 23.5222 24.9999H1.47778C0.661621 25 0 24.0405 0 22.857V2.14289C0 0.959366 0.661621 0 1.47778 0H23.5222C24.3384 0 25 0.959437 25 2.14289V22.857Z" fill="white"/>
<path d="M5.54873 12.6441L4.96172 8.56086C4.86138 7.99777 4.56938 7.83025 4.20454 7.80809H1.51323L1.48926 7.99465C3.5854 8.73149 4.97236 10.509 5.54873 12.6441Z" fill="#F79F1A"/>
<path d="M11.7849 7.89023H10.046L8.95996 17.1318H10.696L11.7849 7.89023Z" fill="#059BBF"/>
<path d="M6.60884 17.1225L9.3437 7.89655H7.50332L5.802 14.1999L5.62041 13.2482C5.28691 12.1032 4.33379 10.4553 3.21484 9.41794L4.77002 17.1256L6.60884 17.1225Z" fill="#059BBF"/>
<path d="M16.7444 14.1107C16.7508 13.0615 16.2862 12.2612 15.2851 11.6002C14.6766 11.1733 14.3058 10.8886 14.3102 10.4554C14.3102 10.0726 14.6243 9.66147 15.3047 9.66147C15.8741 9.64879 16.2841 9.82906 16.6047 10.0157L16.7619 10.1201L16.9975 8.11806C16.6528 7.93135 16.114 7.73212 15.4401 7.73212C13.7235 7.73212 12.5151 8.98467 12.5042 10.7811C12.4933 12.1096 13.3681 12.8497 14.0267 13.2924C14.7028 13.7437 14.9297 14.0325 14.9253 14.4373C14.921 15.0564 14.3865 15.3386 13.8871 15.3386C13.1913 15.3386 12.8226 15.1995 12.2509 14.8541L12.0287 14.7062L11.7847 16.7771C12.1901 17.034 12.9403 17.2586 13.7191 17.2679C15.5447 17.2679 16.7313 16.0313 16.7444 14.1107Z" fill="#059BBF"/>
<path d="M18.8104 15.7466C19.0089 15.7466 20.7822 15.7498 21.0354 15.7498C21.0877 16.0716 21.2469 17.135 21.2469 17.135H22.8588L21.4519 7.89978H20.1105C19.6938 7.89978 19.3842 8.06425 19.2009 8.66508L16.6206 17.135H18.4464C18.4462 17.135 18.7428 15.9966 18.8104 15.7466ZM20.0013 11.2712C19.9927 11.2965 20.1454 10.7367 20.2326 10.3888L20.3503 11.1858C20.3503 11.1858 20.682 13.3935 20.7517 13.8553H19.3099C19.4539 13.324 20.0013 11.2712 20.0013 11.2712Z" fill="#059BBF"/>
<path d="M23.5222 0H1.47778C0.661621 0 0 0.959366 0 2.14289V4.36692H25V2.14289C25 0.959366 24.3384 0 23.5222 0Z" fill="#059BBF"/>
<path d="M23.5222 25H1.47778C0.661621 25 0 24.0406 0 22.8571V20.6331H25V22.8571C25 24.0406 24.3384 25 23.5222 25Z" fill="#F79F1A"/>
<path opacity="0.15" d="M1.05063 22.857V2.14289C1.05063 0.959366 1.7123 0 2.52852 0H1.47773C0.661621 0 0 0.959366 0 2.14289V22.857C0 24.0406 0.661621 25 1.47778 25H2.52856C1.71235 25 1.05063 24.0405 1.05063 22.857Z" fill="#202121"/>
</svg>
