<svg width="232" height="184" viewBox="0 0 232 184" fill="none" xmlns="http://www.w3.org/2000/svg">
<g clip-path="url(#clip0_74_317)">
<path d="M67.0863 33.9472C67.0863 33.2544 66.5608 32.6928 65.9125 32.6928C65.2643 32.6928 64.7388 33.2544 64.7388 33.9472V47.7448C64.7388 48.4375 65.2643 48.9991 65.9125 48.9991C66.5608 48.9991 67.0863 48.4375 67.0863 47.7448V33.9472Z" fill="#C18F2C"/>
<path d="M59.457 39.5916C58.8087 39.5916 58.2832 40.1532 58.2832 40.846C58.2832 41.5387 58.8087 42.1003 59.457 42.1003H72.3684C73.0166 42.1003 73.5421 41.5387 73.5421 40.846C73.5421 40.1532 73.0166 39.5916 72.3684 39.5916H59.457Z" fill="#C18F2C"/>
<path d="M65.9128 46.4904C68.5058 46.4904 70.6079 44.2441 70.6079 41.4731C70.6079 38.7021 68.5058 36.4558 65.9128 36.4558C63.3198 36.4558 61.2178 38.7021 61.2178 41.4731C61.2178 44.2441 63.3198 46.4904 65.9128 46.4904Z" fill="#C18F2C"/>
<path d="M114.239 23.259C114.239 22.5663 113.713 22.0047 113.065 22.0047C112.417 22.0047 111.891 22.5663 111.891 23.259V37.0566C111.891 37.7494 112.417 38.311 113.065 38.311C113.713 38.311 114.239 37.7494 114.239 37.0566V23.259Z" fill="#C18F2C"/>
<path d="M106.609 28.9035C105.961 28.9035 105.436 29.4651 105.436 30.1578C105.436 30.8506 105.961 31.4122 106.609 31.4122H119.521C120.169 31.4122 120.694 30.8506 120.694 30.1578C120.694 29.4651 120.169 28.9035 119.521 28.9035H106.609Z" fill="#C18F2C"/>
<path d="M113.065 35.8023C115.658 35.8023 117.76 33.556 117.76 30.785C117.76 28.014 115.658 25.7677 113.065 25.7677C110.472 25.7677 108.37 28.014 108.37 30.785C108.37 33.556 110.472 35.8023 113.065 35.8023Z" fill="#C18F2C"/>
<path d="M200.895 128.649C200.895 127.956 200.37 127.395 199.722 127.395C199.073 127.395 198.548 127.956 198.548 128.649V142.447C198.548 143.139 199.073 143.701 199.722 143.701C200.37 143.701 200.895 143.139 200.895 142.447V128.649Z" fill="#C18F2C"/>
<path d="M193.266 134.293C192.618 134.293 192.092 134.855 192.092 135.548C192.092 136.241 192.618 136.802 193.266 136.802H206.177C206.826 136.802 207.351 136.241 207.351 135.548C207.351 134.855 206.826 134.293 206.177 134.293H193.266Z" fill="#C18F2C"/>
<path d="M199.722 141.192C202.315 141.192 204.417 138.946 204.417 136.175C204.417 133.404 202.315 131.158 199.722 131.158C197.129 131.158 195.027 133.404 195.027 136.175C195.027 138.946 197.129 141.192 199.722 141.192Z" fill="#C18F2C"/>
<path d="M41.9859 73.6027V73.0583C41.6349 72.9617 41.3186 72.7546 41.0792 72.4639C40.8397 72.1731 40.6875 71.8122 40.6425 71.4279H39.9536C39.8942 71.428 39.8354 71.4157 39.7805 71.3914C39.7256 71.3672 39.6758 71.3316 39.6338 71.2867C39.5918 71.2418 39.559 71.1886 39.5363 71.1299C39.5137 71.0713 39.5018 71.0084 39.502 70.945C39.5023 70.817 39.5502 70.6943 39.6349 70.6038C39.7196 70.5133 39.8338 70.4624 39.9536 70.462H40.7617C40.8681 70.1825 41.034 69.9334 41.2466 69.7347C41.4591 69.5361 41.7125 69.3933 41.9859 69.3179V68.2905C41.9859 68.2271 41.9976 68.1645 42.0203 68.1059C42.043 68.0473 42.0757 67.9939 42.1177 67.9491C42.1597 67.9042 42.2096 67.8689 42.2644 67.8447C42.3192 67.8204 42.3782 67.8079 42.4375 67.8079C42.5574 67.8082 42.6724 67.8589 42.7573 67.9494C42.8422 68.0398 42.8897 68.1624 42.8903 68.2905V69.3179C43.1629 69.3937 43.4154 69.5366 43.6273 69.735C43.8392 69.9334 44.0048 70.1819 44.111 70.4608H44.9191C44.9785 70.4608 45.0374 70.4733 45.0922 70.4975C45.1471 70.5218 45.197 70.5571 45.2389 70.602C45.2809 70.6468 45.3137 70.7002 45.3364 70.7588C45.3591 70.8174 45.3708 70.8803 45.3708 70.9437C45.3711 71.0072 45.3601 71.07 45.3375 71.1287C45.3149 71.1874 45.281 71.2409 45.2389 71.2858C45.1969 71.3307 45.1472 71.3664 45.0922 71.3905C45.0373 71.4147 44.9786 71.4267 44.9191 71.4264H44.2302C44.1853 71.8101 44.0334 72.1707 43.7947 72.4614C43.5559 72.7521 43.2406 72.9596 42.8903 73.057V73.6015C42.8903 73.665 42.8787 73.7278 42.8559 73.7865C42.8331 73.8452 42.7994 73.8984 42.7573 73.9433C42.7152 73.9881 42.6656 74.0238 42.6106 74.048C42.5556 74.0722 42.4969 74.0846 42.4375 74.0845C42.3782 74.0848 42.3193 74.0724 42.2644 74.0483C42.2095 74.0242 42.1597 73.989 42.1177 73.9442C42.0757 73.8994 42.0429 73.8463 42.0203 73.7877C41.9976 73.7291 41.9857 73.6662 41.9859 73.6027Z" fill="#C18F2C"/>
<path d="M171.55 52.4573V51.7498C171.093 51.624 170.682 51.3546 170.371 50.9764C170.059 50.5983 169.86 50.1288 169.801 49.6288H168.901C168.745 49.6288 168.596 49.5627 168.486 49.4451C168.376 49.3275 168.314 49.1679 168.314 49.0016C168.314 48.8353 168.376 48.6758 168.486 48.5581C168.596 48.4405 168.745 48.3744 168.901 48.3744H169.957C170.096 48.0098 170.312 47.6849 170.589 47.4257C170.866 47.1665 171.196 46.9802 171.552 46.8818V45.5384C171.552 45.3721 171.614 45.2125 171.724 45.0949C171.834 44.9773 171.984 44.9112 172.139 44.9112C172.295 44.9112 172.444 44.9773 172.554 45.0949C172.664 45.2125 172.726 45.3721 172.726 45.5384V46.878C173.082 46.9768 173.412 47.1633 173.688 47.4224C173.965 47.6816 174.181 48.0064 174.319 48.3707H175.375C175.531 48.3707 175.68 48.4368 175.79 48.5544C175.9 48.672 175.962 48.8315 175.962 48.9978C175.962 49.1642 175.9 49.3237 175.79 49.4413C175.68 49.5589 175.531 49.625 175.375 49.625H174.472C174.413 50.1254 174.215 50.5954 173.904 50.9743C173.592 51.3531 173.182 51.6233 172.725 51.7498V52.4585C172.725 52.6249 172.663 52.7844 172.553 52.902C172.443 53.0196 172.294 53.0857 172.138 53.0857C171.982 53.0857 171.833 53.0196 171.723 52.902C171.613 52.7844 171.551 52.6249 171.551 52.4585L171.55 52.4573Z" fill="#C18F2C"/>
<path d="M227.589 160.001V159.293C227.132 159.168 226.722 158.898 226.41 158.52C226.098 158.142 225.9 157.672 225.84 157.172H224.94C224.784 157.172 224.635 157.106 224.525 156.989C224.415 156.871 224.353 156.712 224.353 156.545C224.353 156.379 224.415 156.219 224.525 156.102C224.635 155.984 224.784 155.918 224.94 155.918H225.996C226.135 155.553 226.351 155.229 226.628 154.969C226.905 154.71 227.235 154.524 227.591 154.425V153.082C227.591 152.916 227.653 152.756 227.763 152.639C227.873 152.521 228.023 152.455 228.178 152.455C228.334 152.455 228.483 152.521 228.593 152.639C228.703 152.756 228.765 152.916 228.765 153.082V154.422C229.121 154.52 229.451 154.707 229.727 154.966C230.004 155.225 230.22 155.55 230.358 155.914H231.414C231.57 155.914 231.719 155.98 231.829 156.098C231.939 156.216 232.001 156.375 232.001 156.541C232.001 156.708 231.939 156.867 231.829 156.985C231.719 157.103 231.57 157.169 231.414 157.169H230.511C230.452 157.669 230.254 158.139 229.943 158.518C229.632 158.897 229.221 159.167 228.764 159.293V160.002C228.764 160.169 228.702 160.328 228.592 160.446C228.482 160.563 228.333 160.629 228.177 160.629C228.021 160.629 227.872 160.563 227.762 160.446C227.652 160.328 227.59 160.169 227.59 160.002L227.589 160.001Z" fill="#C18F2C"/>
<path d="M167.727 167.582V166.875C167.271 166.749 166.86 166.479 166.548 166.101C166.236 165.723 166.038 165.254 165.978 164.754H165.078C164.922 164.754 164.773 164.687 164.663 164.57C164.553 164.452 164.491 164.293 164.491 164.126C164.491 163.96 164.553 163.801 164.663 163.683C164.773 163.565 164.922 163.499 165.078 163.499H166.134C166.273 163.135 166.489 162.81 166.766 162.551C167.043 162.291 167.373 162.105 167.73 162.007V160.663C167.73 160.497 167.791 160.337 167.902 160.22C168.012 160.102 168.161 160.036 168.317 160.036C168.472 160.036 168.621 160.102 168.731 160.22C168.842 160.337 168.903 160.497 168.903 160.663V162.003C169.259 162.102 169.589 162.288 169.865 162.547C170.142 162.806 170.358 163.131 170.496 163.495H171.553C171.708 163.495 171.857 163.562 171.968 163.679C172.078 163.797 172.139 163.956 172.139 164.123C172.139 164.289 172.078 164.449 171.968 164.566C171.857 164.684 171.708 164.75 171.553 164.75H170.649C170.59 165.25 170.393 165.72 170.081 166.099C169.77 166.478 169.359 166.748 168.902 166.875V167.583C168.902 167.75 168.84 167.909 168.73 168.027C168.62 168.144 168.471 168.211 168.315 168.211C168.16 168.211 168.01 168.144 167.9 168.027C167.79 167.909 167.728 167.75 167.728 167.583L167.727 167.582Z" fill="#C18F2C"/>
<path d="M60.7662 135.065V134.52C60.4151 134.424 60.0989 134.217 59.8595 133.926C59.62 133.635 59.4678 133.274 59.4227 132.89H58.7339C58.6745 132.89 58.6157 132.878 58.5608 132.854C58.5059 132.829 58.456 132.794 58.414 132.749C58.3721 132.704 58.3393 132.651 58.3166 132.592C58.294 132.533 58.2821 132.471 58.2822 132.407C58.2825 132.279 58.3305 132.156 58.4152 132.066C58.4999 131.975 58.6141 131.924 58.7339 131.924H59.542C59.6484 131.645 59.8142 131.395 60.0268 131.197C60.2394 130.998 60.4927 130.855 60.7662 130.78V129.753C60.7662 129.689 60.7778 129.627 60.8005 129.568C60.8233 129.509 60.856 129.456 60.898 129.411C60.9399 129.366 60.9899 129.331 61.0447 129.307C61.0995 129.282 61.1584 129.27 61.2178 129.27C61.3376 129.27 61.4527 129.321 61.5376 129.411C61.6225 129.502 61.6699 129.625 61.6705 129.753V130.78C61.9432 130.856 62.1957 130.999 62.4076 131.197C62.6195 131.396 62.7851 131.644 62.8913 131.923H63.6994C63.7588 131.923 63.8177 131.935 63.8725 131.96C63.9273 131.984 63.9773 132.019 64.0192 132.064C64.0612 132.109 64.0939 132.162 64.1167 132.221C64.1394 132.279 64.151 132.342 64.151 132.406C64.1514 132.469 64.1404 132.532 64.1178 132.591C64.0952 132.65 64.0612 132.703 64.0192 132.748C63.9772 132.793 63.9275 132.828 63.8725 132.853C63.8175 132.877 63.7588 132.889 63.6994 132.888H63.0105C62.9656 133.272 62.8137 133.633 62.5749 133.924C62.3362 134.214 62.0208 134.422 61.6705 134.519V135.064C61.6705 135.127 61.6589 135.19 61.6362 135.249C61.6134 135.307 61.5797 135.361 61.5376 135.405C61.4955 135.45 61.4458 135.486 61.3909 135.51C61.3359 135.534 61.2772 135.547 61.2178 135.547C61.1584 135.547 61.0996 135.535 61.0447 135.51C60.9898 135.486 60.94 135.451 60.898 135.406C60.856 135.362 60.8232 135.308 60.8005 135.25C60.7779 135.191 60.766 135.128 60.7662 135.065Z" fill="#C18F2C"/>
<path d="M21.4576 168.205V167.371C20.9181 167.222 20.4331 166.903 20.0653 166.456C19.6976 166.009 19.4641 165.454 19.3953 164.863H18.3389C18.1546 164.863 17.9779 164.784 17.8476 164.645C17.7173 164.506 17.644 164.317 17.644 164.12C17.644 163.923 17.7173 163.734 17.8476 163.595C17.9779 163.456 18.1546 163.378 18.3389 163.378H19.5761C19.7389 162.948 19.9935 162.565 20.3196 162.259C20.6457 161.953 21.0342 161.732 21.4541 161.615V160.041C21.4541 159.844 21.5273 159.655 21.6576 159.516C21.7879 159.377 21.9647 159.298 22.1489 159.298C22.3332 159.298 22.51 159.377 22.6403 159.516C22.7706 159.655 22.8438 159.844 22.8438 160.041V161.62C23.2631 161.737 23.6512 161.956 23.9772 162.261C24.3033 162.566 24.5582 162.948 24.7218 163.376H25.9731C26.1574 163.376 26.3341 163.455 26.4644 163.594C26.5947 163.733 26.6679 163.922 26.6679 164.119C26.6679 164.316 26.5947 164.505 26.4644 164.644C26.3341 164.783 26.1574 164.861 25.9731 164.861H24.9073C24.8386 165.452 24.6055 166.007 24.2382 166.454C23.8709 166.902 23.3863 167.221 22.8473 167.37V168.205C22.8473 168.402 22.7741 168.591 22.6438 168.731C22.5135 168.87 22.3368 168.948 22.1525 168.948C21.9682 168.948 21.7914 168.87 21.6611 168.731C21.5308 168.591 21.4576 168.402 21.4576 168.205Z" fill="#C18F2C"/>
<path d="M89.5357 183.257V182.423C88.9963 182.274 88.5112 181.955 88.1435 181.508C87.7757 181.061 87.5423 180.506 87.4734 179.915H86.417C86.2327 179.915 86.056 179.836 85.9257 179.697C85.7954 179.558 85.7222 179.369 85.7222 179.172C85.7222 178.975 85.7954 178.786 85.9257 178.647C86.056 178.508 86.2327 178.43 86.417 178.43H87.6542C87.817 178 88.0717 177.617 88.3977 177.311C88.7238 177.005 89.1123 176.784 89.5322 176.667V175.093C89.5322 174.896 89.6054 174.707 89.7357 174.568C89.866 174.429 90.0428 174.35 90.2271 174.35C90.4114 174.35 90.5881 174.429 90.7184 174.568C90.8487 174.707 90.9219 174.896 90.9219 175.093V176.672C91.3412 176.789 91.7293 177.008 92.0554 177.313C92.3814 177.618 92.6363 178 92.8 178.428H94.0512C94.2355 178.428 94.4122 178.507 94.5425 178.646C94.6728 178.785 94.7461 178.974 94.7461 179.171C94.7461 179.368 94.6728 179.557 94.5425 179.696C94.4122 179.835 94.2355 179.913 94.0512 179.913H92.9854C92.9167 180.504 92.6836 181.059 92.3163 181.506C91.949 181.953 91.4645 182.273 90.9255 182.422V183.257C90.9255 183.454 90.8522 183.643 90.7219 183.783C90.5916 183.922 90.4149 184 90.2306 184C90.0463 184 89.8696 183.922 89.7392 183.783C89.6089 183.643 89.5357 183.454 89.5357 183.257Z" fill="#C18F2C"/>
<path d="M134.288 8.90574V8.07161C133.748 7.92253 133.263 7.60364 132.895 7.1563C132.528 6.70896 132.294 6.15383 132.225 5.56295H131.169C130.985 5.56295 130.808 5.48472 130.678 5.34546C130.547 5.2062 130.474 5.01733 130.474 4.82039C130.474 4.62345 130.547 4.43458 130.678 4.29532C130.808 4.15606 130.985 4.07783 131.169 4.07783H132.406C132.569 3.64799 132.824 3.26479 133.15 2.95881C133.476 2.65282 133.864 2.43252 134.284 2.31549V0.741311C134.284 0.544372 134.357 0.355498 134.488 0.21624C134.618 0.0769828 134.795 -0.00125122 134.979 -0.00125122C135.163 -0.00125122 135.34 0.0769828 135.47 0.21624C135.601 0.355498 135.674 0.544372 135.674 0.741311V2.32051C136.093 2.4369 136.481 2.65625 136.807 2.9611C137.133 3.26596 137.388 3.64791 137.552 4.07657H138.803C138.987 4.07657 139.164 4.15481 139.294 4.29406C139.425 4.43332 139.498 4.62219 139.498 4.81913C139.498 5.01607 139.425 5.20495 139.294 5.34421C139.164 5.48346 138.987 5.5617 138.803 5.5617H137.737C137.669 6.15225 137.436 6.70715 137.068 7.15445C136.701 7.60176 136.216 7.92085 135.677 8.07035V8.90574C135.677 9.10268 135.604 9.29155 135.474 9.43081C135.344 9.57007 135.167 9.6483 134.983 9.6483C134.798 9.6483 134.622 9.57007 134.491 9.43081C134.361 9.29155 134.288 9.10268 134.288 8.90574Z" fill="#C18F2C"/>
<path d="M8.39831 52.7621C8.39831 52.0693 7.87279 51.5078 7.22454 51.5078C6.57629 51.5078 6.05078 52.0693 6.05078 52.7621V66.5597C6.05078 67.2524 6.57629 67.814 7.22454 67.814C7.87279 67.814 8.39831 67.2524 8.39831 66.5597V52.7621Z" fill="#C18F2C"/>
<path d="M1.11155 58.473C0.497659 58.473 0 59.0048 0 59.6609C0 60.3169 0.497659 60.8487 1.11155 60.8487H13.3386C13.9525 60.8487 14.4502 60.3169 14.4502 59.6609C14.4502 59.0048 13.9525 58.473 13.3386 58.473H1.11155Z" fill="#C18F2C"/>
<path d="M7.22435 65.3054C9.81735 65.3054 11.9194 63.059 11.9194 60.2881C11.9194 57.5171 9.81735 55.2707 7.22435 55.2707C4.63134 55.2707 2.5293 57.5171 2.5293 60.2881C2.5293 63.059 4.63134 65.3054 7.22435 65.3054Z" fill="#C18F2C"/>
<path d="M212.104 22.5503C212.502 22.0053 212.405 21.2127 211.888 20.7798C211.37 20.3469 210.627 20.4378 210.229 20.9827L202.297 31.8365C201.898 32.3814 201.995 33.1741 202.513 33.6069C203.031 34.0398 203.773 33.9489 204.171 33.404L212.104 22.5503Z" fill="#C18F2C"/>
<path d="M203.05 22.2352C202.566 21.83 201.871 21.9151 201.498 22.4252C201.125 22.9352 201.216 23.6772 201.7 24.0824L211.352 32.1523C211.836 32.5575 212.531 32.4724 212.904 31.9624C213.277 31.4523 213.186 30.7103 212.702 30.3052L203.05 22.2352Z" fill="#C18F2C"/>
<path d="M203.972 31.6134C206.03 33.3357 208.981 32.9742 210.564 30.806C212.147 28.6379 211.762 25.484 209.705 23.7617C207.647 22.0395 204.696 22.4009 203.113 24.5691C201.53 26.7373 201.915 29.8912 203.972 31.6134Z" fill="#C18F2C"/>
<path d="M4.87682 133.039C6.17332 133.039 7.22435 131.916 7.22435 130.53C7.22435 129.145 6.17332 128.022 4.87682 128.022C3.58032 128.022 2.5293 129.145 2.5293 130.53C2.5293 131.916 3.58032 133.039 4.87682 133.039Z" fill="#1F4B3E"/>
<path d="M71.7816 95.4093C73.0781 95.4093 74.1291 94.2861 74.1291 92.9006C74.1291 91.5151 73.0781 90.392 71.7816 90.392C70.4851 90.392 69.4341 91.5151 69.4341 92.9006C69.4341 94.2861 70.4851 95.4093 71.7816 95.4093Z" fill="#8FEB91"/>
<path d="M24.8309 82.866C26.1274 82.866 27.1784 81.7428 27.1784 80.3573C27.1784 78.9718 26.1274 77.8487 24.8309 77.8487C23.5344 77.8487 22.4834 78.9718 22.4834 80.3573C22.4834 81.7428 23.5344 82.866 24.8309 82.866Z" fill="#1F4B3E"/>
<path d="M40.0897 153.108C41.3862 153.108 42.4372 151.985 42.4372 150.6C42.4372 149.214 41.3862 148.091 40.0897 148.091C38.7932 148.091 37.7422 149.214 37.7422 150.6C37.7422 151.985 38.7932 153.108 40.0897 153.108Z" fill="#1F4B3E"/>
<path d="M176.229 133.013C177.525 133.013 178.576 131.89 178.576 130.504C178.576 129.119 177.525 127.995 176.229 127.995C174.932 127.995 173.881 129.119 173.881 130.504C173.881 131.89 174.932 133.013 176.229 133.013Z" fill="#1F4B3E"/>
<path d="M217.741 90.3919C219.038 90.3919 220.089 89.2688 220.089 87.8833C220.089 86.4978 219.038 85.3746 217.741 85.3746C216.445 85.3746 215.394 86.4978 215.394 87.8833C215.394 89.2688 216.445 90.3919 217.741 90.3919Z" fill="#1F4B3E"/>
<path d="M192.092 77.1952C193.389 77.1952 194.44 76.072 194.44 74.6865C194.44 73.301 193.389 72.1779 192.092 72.1779C190.796 72.1779 189.745 73.301 189.745 74.6865C189.745 76.072 190.796 77.1952 192.092 77.1952Z" fill="#1F4B3E"/>
<path d="M162.143 114.198C163.44 114.198 164.491 113.075 164.491 111.689C164.491 110.304 163.44 109.181 162.143 109.181C160.847 109.181 159.796 110.304 159.796 111.689C159.796 113.075 160.847 114.198 162.143 114.198Z" fill="#8FEB91"/>
<path d="M128.122 30.1578C129.418 30.1578 130.469 29.0347 130.469 27.6492C130.469 26.2637 129.418 25.1405 128.122 25.1405C126.825 25.1405 125.774 26.2637 125.774 27.6492C125.774 29.0347 126.825 30.1578 128.122 30.1578Z" fill="#1F4B3E"/>
<path opacity="0.1" d="M149.431 74.1622V53.2024C149.431 52.4938 149.167 51.8142 148.698 51.3132C148.23 50.8121 147.594 50.5306 146.931 50.5306H93.1417C92.8134 50.5306 92.4883 50.5997 92.185 50.734C91.8816 50.8683 91.606 51.0651 91.3739 51.3132C91.1417 51.5613 90.9576 51.8558 90.8319 52.1799C90.7063 52.5041 90.6416 52.8515 90.6416 53.2024V162.167C90.6414 162.396 90.6962 162.621 90.8007 162.82C90.9053 163.02 91.056 163.187 91.2386 163.307C91.4211 163.426 91.6293 163.493 91.8431 163.502C92.057 163.511 92.2693 163.461 92.4598 163.356L95.9529 161.451C96.129 161.355 96.3239 161.305 96.5216 161.305C96.7193 161.305 96.9142 161.355 97.0903 161.451L101.831 164.037C102.007 164.133 102.202 164.184 102.4 164.184C102.597 164.184 102.792 164.133 102.968 164.037L107.712 161.451C107.887 161.355 108.082 161.305 108.279 161.305C108.476 161.305 108.671 161.355 108.847 161.451L113.589 164.037C113.764 164.133 113.959 164.184 114.156 164.184C114.354 164.184 114.548 164.133 114.724 164.037L119.467 161.451C119.643 161.355 119.838 161.305 120.036 161.305C120.233 161.305 120.428 161.355 120.604 161.451L125.345 164.037C125.521 164.133 125.716 164.184 125.914 164.184C126.111 164.184 126.306 164.133 126.482 164.037L131.223 161.451C131.399 161.355 131.593 161.305 131.791 161.305C131.988 161.305 132.183 161.355 132.358 161.451L137.101 164.037C137.277 164.133 137.472 164.184 137.669 164.184C137.866 164.184 138.061 164.133 138.236 164.037L142.977 161.451C143.153 161.355 143.348 161.305 143.546 161.305C143.744 161.305 143.939 161.355 144.115 161.451L147.605 163.356C147.796 163.46 148.009 163.51 148.223 163.501C148.436 163.492 148.645 163.425 148.827 163.305C149.01 163.185 149.16 163.018 149.265 162.818C149.369 162.618 149.424 162.393 149.424 162.165V102.632C152.957 102.632 156.345 101.132 158.844 98.4619C161.342 95.792 162.746 92.1708 162.746 88.3951C162.746 84.6193 161.342 80.9981 158.844 78.3282C156.345 75.6584 152.957 74.1584 149.424 74.1584L149.431 74.1622Z" fill="#7CFC00"/>
<path d="M173.918 70.5648C157.56 57.1259 141.693 68.0775 123.996 64.2053C106.172 60.3044 99.0691 47.3171 78.7665 53.3115C60.7821 58.6198 49.8696 79.9158 59.7563 97.7411C62.5733 102.821 67.3728 106.647 69.3342 112.336C72.5033 121.506 67.6815 128.544 68.6217 137.548C72.5256 174.986 126.028 160.485 145.714 148.837C176.59 130.576 197.476 89.9216 173.918 70.5648Z" fill="url(#paint0_linear_74_317)"/>
<path d="M149.431 46.5218V155.484C149.431 155.713 149.376 155.938 149.272 156.138C149.167 156.337 149.017 156.505 148.834 156.625C148.652 156.744 148.444 156.812 148.23 156.821C148.016 156.83 147.803 156.78 147.613 156.676L144.122 154.77C143.946 154.674 143.751 154.624 143.553 154.624C143.355 154.624 143.161 154.674 142.984 154.77L138.239 157.357C138.063 157.453 137.869 157.503 137.671 157.503C137.474 157.503 137.28 157.453 137.104 157.357L132.37 154.77C132.194 154.674 132 154.624 131.803 154.624C131.605 154.624 131.411 154.674 131.235 154.77L126.494 157.357C126.318 157.453 126.123 157.503 125.926 157.503C125.728 157.503 125.533 157.453 125.357 157.357L120.616 154.77C120.44 154.674 120.245 154.624 120.047 154.624C119.85 154.624 119.655 154.674 119.479 154.77L114.736 157.357C114.56 157.453 114.365 157.503 114.168 157.503C113.971 157.503 113.776 157.453 113.6 157.357L108.857 154.77C108.682 154.674 108.487 154.624 108.29 154.624C108.092 154.624 107.898 154.674 107.722 154.77L102.979 157.357C102.803 157.453 102.608 157.503 102.41 157.503C102.213 157.503 102.018 157.453 101.842 157.357L97.1009 154.77C96.9248 154.674 96.7299 154.624 96.5322 154.624C96.3345 154.624 96.1396 154.674 95.9635 154.77L92.4622 156.676C92.2717 156.78 92.0594 156.83 91.8455 156.821C91.6317 156.813 91.4235 156.746 91.241 156.626C91.0585 156.507 90.9077 156.339 90.8032 156.14C90.6986 155.94 90.6438 155.715 90.644 155.487V46.5218C90.644 45.8132 90.9074 45.1337 91.3763 44.6326C91.8452 44.1316 92.4811 43.8501 93.1441 43.8501H146.932C147.595 43.8501 148.231 44.1316 148.7 44.6326C149.169 45.1337 149.431 45.8132 149.431 46.5218Z" fill="white"/>
<path d="M125.919 158.838C125.524 158.838 125.135 158.739 124.783 158.547L120.041 155.961L115.299 158.547C114.946 158.738 114.557 158.838 114.162 158.838C113.767 158.838 113.377 158.738 113.025 158.547L108.283 155.961L103.541 158.547C103.189 158.739 102.799 158.838 102.404 158.838C102.009 158.838 101.62 158.739 101.268 158.547L96.5243 155.961L93.0312 157.866C92.6498 158.075 92.2246 158.175 91.7964 158.157C91.3683 158.14 90.9515 158.005 90.5862 157.765C90.2209 157.526 89.9193 157.191 89.7102 156.791C89.5012 156.391 89.3918 155.941 89.3926 155.483V46.5231C89.3926 45.4585 89.7883 44.4376 90.4927 43.6848C91.1971 42.9321 92.1525 42.5092 93.1486 42.5092H105.394C105.726 42.5092 106.044 42.65 106.278 42.9005C106.513 43.151 106.645 43.4908 106.645 43.8451C106.645 44.1994 106.513 44.5391 106.278 44.7897C106.044 45.0402 105.726 45.1809 105.394 45.1809H93.1427C92.8113 45.1813 92.4935 45.3221 92.2592 45.5726C92.0248 45.823 91.893 46.1626 91.8927 46.5168V155.479L95.3858 153.574C95.738 153.382 96.1275 153.283 96.5226 153.283C96.9177 153.283 97.3072 153.382 97.6594 153.574L102.403 156.16L107.145 153.574C107.497 153.382 107.886 153.283 108.281 153.283C108.676 153.283 109.066 153.382 109.418 153.574L114.16 156.16L118.902 153.574C119.254 153.382 119.644 153.283 120.039 153.283C120.434 153.283 120.824 153.382 121.176 153.574L125.918 156.16L130.659 153.574C131.011 153.382 131.4 153.283 131.795 153.283C132.19 153.283 132.58 153.382 132.932 153.574L137.674 156.16L142.415 153.574C142.767 153.382 143.157 153.283 143.552 153.283C143.947 153.283 144.336 153.382 144.689 153.574L148.18 155.478V103.858C148.18 103.504 148.312 103.164 148.547 102.914C148.781 102.663 149.099 102.523 149.431 102.523C149.762 102.523 150.08 102.663 150.314 102.914C150.549 103.164 150.681 103.504 150.681 103.858V155.485C150.681 155.943 150.572 156.394 150.363 156.793C150.154 157.193 149.852 157.529 149.487 157.768C149.122 158.007 148.705 158.142 148.277 158.16C147.849 158.177 147.423 158.077 147.042 157.869L143.551 155.965L138.81 158.551C138.458 158.742 138.069 158.842 137.674 158.842C137.278 158.842 136.889 158.742 136.537 158.551L131.796 155.965L127.055 158.551C126.703 158.743 126.313 158.842 125.918 158.842L125.919 158.838Z" fill="#1F4B3E"/>
<path d="M121.287 93.1678H99.6524C99.3209 93.1678 99.0029 93.027 98.7685 92.7765C98.5341 92.526 98.4023 92.1862 98.4023 91.8319C98.4023 91.4776 98.5341 91.1378 98.7685 90.8873C99.0029 90.6368 99.3209 90.4961 99.6524 90.4961H121.287C121.619 90.4961 121.937 90.6368 122.171 90.8873C122.406 91.1378 122.537 91.4776 122.537 91.8319C122.537 92.1862 122.406 92.526 122.171 92.7765C121.937 93.027 121.619 93.1678 121.287 93.1678Z" fill="#464646"/>
<path d="M102.534 87.8118H99.6534C99.3218 87.8118 99.0039 87.6711 98.7695 87.4205C98.535 87.17 98.4033 86.8302 98.4033 86.4759C98.4033 86.1216 98.535 85.7819 98.7695 85.5313C99.0039 85.2808 99.3218 85.1401 99.6534 85.1401H102.534C102.865 85.1401 103.183 85.2808 103.418 85.5313C103.652 85.7819 103.784 86.1216 103.784 86.4759C103.784 86.8302 103.652 87.17 103.418 87.4205C103.183 87.6711 102.865 87.8118 102.534 87.8118Z" fill="#212121"/>
<path d="M126.289 105.302H99.6524C99.3209 105.302 99.0029 105.161 98.7685 104.911C98.5341 104.66 98.4023 104.321 98.4023 103.966C98.4023 103.612 98.5341 103.272 98.7685 103.022C99.0029 102.771 99.3209 102.63 99.6524 102.63H126.289C126.62 102.63 126.938 102.771 127.173 103.022C127.407 103.272 127.539 103.612 127.539 103.966C127.539 104.321 127.407 104.66 127.173 104.911C126.938 105.161 126.62 105.302 126.289 105.302Z" fill="#464646"/>
<path d="M102.534 99.95H99.6534C99.3218 99.95 99.0039 99.8092 98.7695 99.5587C98.535 99.3082 98.4033 98.9684 98.4033 98.6141C98.4033 98.2598 98.535 97.92 98.7695 97.6695C99.0039 97.419 99.3218 97.2782 99.6534 97.2782H102.534C102.865 97.2782 103.183 97.419 103.418 97.6695C103.652 97.92 103.784 98.2598 103.784 98.6141C103.784 98.9684 103.652 99.3082 103.418 99.5587C103.183 99.8092 102.865 99.95 102.534 99.95Z" fill="#212121"/>
<path d="M123.788 117.437H99.6524C99.3209 117.437 99.0029 117.296 98.7685 117.045C98.5341 116.795 98.4023 116.455 98.4023 116.101C98.4023 115.746 98.5341 115.407 98.7685 115.156C99.0029 114.906 99.3209 114.765 99.6524 114.765H123.787C124.119 114.765 124.437 114.906 124.671 115.156C124.906 115.407 125.037 115.746 125.037 116.101C125.037 116.455 124.906 116.795 124.671 117.045C124.437 117.296 124.119 117.437 123.787 117.437H123.788Z" fill="#464646"/>
<path d="M102.534 112.083H99.6534C99.3218 112.083 99.0039 111.942 98.7695 111.692C98.535 111.441 98.4033 111.102 98.4033 110.747C98.4033 110.393 98.535 110.053 98.7695 109.803C99.0039 109.552 99.3218 109.411 99.6534 109.411H102.534C102.865 109.411 103.183 109.552 103.418 109.803C103.652 110.053 103.784 110.393 103.784 110.747C103.784 111.102 103.652 111.441 103.418 111.692C103.183 111.942 102.865 112.083 102.534 112.083Z" fill="#212121"/>
<path d="M113.786 129.57H99.6524C99.3209 129.57 99.0029 129.429 98.7685 129.178C98.5341 128.928 98.4023 128.588 98.4023 128.234C98.4023 127.879 98.5341 127.54 98.7685 127.289C99.0029 127.039 99.3209 126.898 99.6524 126.898H113.786C114.117 126.898 114.435 127.039 114.67 127.289C114.904 127.54 115.036 127.879 115.036 128.234C115.036 128.588 114.904 128.928 114.67 129.178C114.435 129.429 114.117 129.57 113.786 129.57Z" fill="#464646"/>
<path d="M125.229 129.57H119.847C119.516 129.57 119.198 129.429 118.963 129.178C118.729 128.928 118.597 128.588 118.597 128.234C118.597 127.879 118.729 127.54 118.963 127.289C119.198 127.039 119.516 126.898 119.847 126.898H125.229C125.56 126.898 125.878 127.039 126.113 127.289C126.347 127.54 126.479 127.879 126.479 128.234C126.479 128.588 126.347 128.928 126.113 129.178C125.878 129.429 125.56 129.57 125.229 129.57Z" fill="#464646"/>
<path d="M102.534 124.217H99.6534C99.3218 124.217 99.0039 124.077 98.7695 123.826C98.535 123.576 98.4033 123.236 98.4033 122.882C98.4033 122.527 98.535 122.187 98.7695 121.937C99.0039 121.686 99.3218 121.546 99.6534 121.546H102.534C102.865 121.546 103.183 121.686 103.418 121.937C103.652 122.187 103.784 122.527 103.784 122.882C103.784 123.236 103.652 123.576 103.418 123.826C103.183 124.077 102.865 124.217 102.534 124.217Z" fill="#212121"/>
<path d="M139.695 93.1678H135.565C135.233 93.1678 134.916 93.027 134.681 92.7765C134.447 92.526 134.315 92.1862 134.315 91.8319C134.315 91.4776 134.447 91.1379 134.681 90.8873C134.916 90.6368 135.233 90.4961 135.565 90.4961H139.695C140.027 90.4961 140.345 90.6368 140.579 90.8873C140.814 91.1379 140.946 91.4776 140.946 91.8319C140.946 92.1862 140.814 92.526 140.579 92.7765C140.345 93.027 140.027 93.1678 139.695 93.1678Z" fill="#464646"/>
<path d="M139.695 105.302H135.565C135.233 105.302 134.916 105.161 134.681 104.911C134.447 104.66 134.315 104.321 134.315 103.966C134.315 103.612 134.447 103.272 134.681 103.022C134.916 102.771 135.233 102.63 135.565 102.63H139.695C140.027 102.63 140.345 102.771 140.579 103.022C140.814 103.272 140.946 103.612 140.946 103.966C140.946 104.321 140.814 104.66 140.579 104.911C140.345 105.161 140.027 105.302 139.695 105.302Z" fill="#464646"/>
<path d="M139.695 117.437H135.565C135.233 117.437 134.916 117.296 134.681 117.045C134.447 116.795 134.315 116.455 134.315 116.101C134.315 115.746 134.447 115.407 134.681 115.156C134.916 114.906 135.233 114.765 135.565 114.765H139.695C140.027 114.765 140.345 114.906 140.579 115.156C140.814 115.407 140.946 115.746 140.946 116.101C140.946 116.455 140.814 116.795 140.579 117.045C140.345 117.296 140.027 117.437 139.695 117.437Z" fill="#464646"/>
<path d="M139.695 129.57H135.565C135.233 129.57 134.916 129.429 134.681 129.178C134.447 128.928 134.315 128.588 134.315 128.234C134.315 127.879 134.447 127.54 134.681 127.289C134.916 127.039 135.233 126.898 135.565 126.898H139.695C140.027 126.898 140.345 127.039 140.579 127.289C140.814 127.54 140.946 127.879 140.946 128.234C140.946 128.588 140.814 128.928 140.579 129.178C140.345 129.429 140.027 129.57 139.695 129.57Z" fill="#464646"/>
<path d="M139.281 124.232C138.949 124.232 138.631 124.092 138.397 123.841C138.162 123.591 138.031 123.251 138.031 122.897V122.863C138.031 122.508 138.162 122.169 138.397 121.918C138.631 121.668 138.949 121.527 139.281 121.527C139.612 121.527 139.93 121.668 140.165 121.918C140.399 122.169 140.531 122.508 140.531 122.863V122.894C140.531 123.07 140.499 123.244 140.436 123.406C140.374 123.568 140.282 123.716 140.166 123.84C140.049 123.965 139.912 124.063 139.76 124.131C139.608 124.198 139.445 124.232 139.281 124.232Z" fill="#212121"/>
<path d="M139.694 145.036H133.657C133.326 145.036 133.008 144.895 132.773 144.644C132.539 144.394 132.407 144.054 132.407 143.7C132.407 143.345 132.539 143.006 132.773 142.755C133.008 142.505 133.326 142.364 133.657 142.364H139.694C140.025 142.364 140.343 142.505 140.578 142.755C140.812 143.006 140.944 143.345 140.944 143.7C140.944 144.054 140.812 144.394 140.578 144.644C140.343 144.895 140.025 145.036 139.694 145.036Z" fill="#464646"/>
<path d="M108.189 145.036H99.6524C99.3209 145.036 99.0029 144.895 98.7685 144.644C98.5341 144.394 98.4023 144.054 98.4023 143.7C98.4023 143.345 98.5341 143.006 98.7685 142.755C99.0029 142.505 99.3209 142.364 99.6524 142.364H108.189C108.521 142.364 108.839 142.505 109.073 142.755C109.308 143.006 109.439 143.345 109.439 143.7C109.439 144.054 109.308 144.394 109.073 144.644C108.839 144.895 108.521 145.036 108.189 145.036Z" fill="#464646"/>
<path d="M139.281 112.099C138.949 112.099 138.631 111.959 138.397 111.708C138.162 111.458 138.031 111.118 138.031 110.764V110.738C138.031 110.384 138.162 110.044 138.397 109.794C138.631 109.543 138.949 109.403 139.281 109.403C139.612 109.403 139.93 109.543 140.165 109.794C140.399 110.044 140.531 110.384 140.531 110.738V110.77C140.529 111.123 140.397 111.461 140.163 111.71C139.928 111.96 139.611 112.099 139.281 112.099Z" fill="#212121"/>
<path d="M139.281 99.965C138.949 99.965 138.631 99.8243 138.397 99.5737C138.162 99.3232 138.031 98.9834 138.031 98.6291V98.5978C138.031 98.2435 138.162 97.9037 138.397 97.6532C138.631 97.4027 138.949 97.2619 139.281 97.2619C139.612 97.2619 139.93 97.4027 140.165 97.6532C140.399 97.9037 140.531 98.2435 140.531 98.5978V98.6291C140.531 98.9834 140.399 99.3232 140.165 99.5737C139.93 99.8243 139.612 99.965 139.281 99.965Z" fill="#212121"/>
<path d="M139.281 87.8319C138.949 87.8319 138.631 87.6911 138.397 87.4406C138.162 87.1901 138.031 86.8503 138.031 86.496V86.4659C138.031 86.1116 138.162 85.7718 138.397 85.5213C138.631 85.2708 138.949 85.13 139.281 85.13C139.612 85.13 139.93 85.2708 140.165 85.5213C140.399 85.7718 140.531 86.1116 140.531 86.4659V86.496C140.531 86.8503 140.399 87.1901 140.165 87.4406C139.93 87.6911 139.612 87.8319 139.281 87.8319Z" fill="#01ECA5"/>
<path d="M149.43 95.9486C156.787 95.9486 162.75 89.5758 162.75 81.7145C162.75 73.8532 156.787 67.4804 149.43 67.4804C142.074 67.4804 136.11 73.8532 136.11 81.7145C136.11 89.5758 142.074 95.9486 149.43 95.9486Z" fill="#C18F2C"/>
<path d="M150.68 66.206V46.5231C150.68 45.4585 150.285 44.4376 149.58 43.6848C148.876 42.9321 147.921 42.5092 146.924 42.5092H112.702C112.371 42.5092 112.053 42.65 111.818 42.9005C111.584 43.151 111.452 43.4908 111.452 43.8451C111.452 44.1994 111.584 44.5391 111.818 44.7897C112.053 45.0402 112.371 45.1809 112.702 45.1809H146.931C147.263 45.1813 147.581 45.3221 147.815 45.5726C148.049 45.823 148.181 46.1626 148.182 46.5168V66.206C144.439 66.5504 140.966 68.4258 138.486 71.441C136.007 74.4561 134.713 78.3781 134.874 82.3884C135.035 86.3987 136.639 90.1875 139.352 92.9642C142.064 95.741 145.675 97.2911 149.432 97.2911C153.188 97.2911 156.799 95.741 159.511 92.9642C162.224 90.1875 163.828 86.3987 163.989 82.3884C164.151 78.3781 162.856 74.4561 160.377 71.441C157.897 68.4258 154.424 66.5504 150.682 66.206H150.68ZM149.43 94.614C147.043 94.614 144.709 93.8574 142.724 92.4399C140.739 91.0224 139.192 89.0077 138.279 86.6506C137.366 84.2934 137.127 81.6997 137.593 79.1976C138.059 76.6954 139.209 74.3972 140.897 72.5935C142.586 70.7899 144.737 69.5618 147.079 69.0647C149.42 68.5676 151.847 68.8238 154.053 69.8008C156.258 70.7778 158.143 72.4318 159.468 74.5535C160.794 76.6753 161.501 79.1695 161.5 81.7208C161.495 85.1395 160.222 88.4166 157.959 90.8336C155.697 93.2505 152.63 94.61 149.43 94.614Z" fill="#1F4B3E"/>
<path d="M150.654 80.711H150.364V78.6677H152.14C152.389 78.6677 152.628 78.562 152.804 78.3738C152.98 78.1857 153.079 77.9304 153.079 77.6643C153.079 77.3981 152.98 77.1429 152.804 76.9547C152.628 76.7665 152.389 76.6608 152.14 76.6608H150.364V76.1591C150.364 75.893 150.266 75.6377 150.089 75.4495C149.913 75.2613 149.674 75.1556 149.425 75.1556C149.176 75.1556 148.938 75.2613 148.761 75.4495C148.585 75.6377 148.486 75.893 148.486 76.1591V76.6608H148.201C147.45 76.6608 146.729 76.9799 146.197 77.5479C145.666 78.1158 145.367 78.8862 145.367 79.6894C145.367 80.4926 145.666 81.263 146.197 81.8309C146.729 82.3989 147.45 82.718 148.201 82.718H148.486V84.7613H146.711C146.462 84.7613 146.223 84.867 146.047 85.0552C145.87 85.2434 145.772 85.4986 145.772 85.7647C145.772 86.0309 145.87 86.2861 146.047 86.4743C146.223 86.6625 146.462 86.7682 146.711 86.7682H148.486V87.2699C148.486 87.5361 148.585 87.7913 148.761 87.9795C148.938 88.1677 149.176 88.2734 149.425 88.2734C149.674 88.2734 149.913 88.1677 150.089 87.9795C150.266 87.7913 150.364 87.5361 150.364 87.2699V86.7682H150.65C151.391 86.7521 152.098 86.4259 152.617 85.8597C153.136 85.2935 153.427 84.5324 153.427 83.7396C153.427 82.9469 153.136 82.1858 152.617 81.6196C152.098 81.0534 151.391 80.7272 150.65 80.711H150.654ZM148.207 80.711C147.954 80.711 147.71 80.6034 147.531 80.4118C147.352 80.2202 147.251 79.9604 147.251 79.6894C147.251 79.4184 147.352 79.1586 147.531 78.967C147.71 78.7754 147.954 78.6677 148.207 78.6677H148.492V80.711H148.207ZM150.654 84.7613H150.364V82.718H150.65C150.903 82.718 151.146 82.8256 151.326 83.0172C151.505 83.2088 151.606 83.4687 151.606 83.7396C151.606 84.0106 151.505 84.2704 151.326 84.462C151.146 84.6536 150.903 84.7613 150.65 84.7613H150.654Z" fill="#1F4B3E"/>
<path d="M125.228 77.3532H114.846C114.514 77.3532 114.196 77.2125 113.962 76.9619C113.727 76.7114 113.596 76.3716 113.596 76.0174C113.596 75.6631 113.727 75.3233 113.962 75.0728C114.196 74.8222 114.514 74.6815 114.846 74.6815H125.228C125.559 74.6815 125.877 74.8222 126.112 75.0728C126.346 75.3233 126.478 75.6631 126.478 76.0174C126.478 76.3716 126.346 76.7114 126.112 76.9619C125.877 77.2125 125.559 77.3532 125.228 77.3532Z" fill="#464646"/>
<path d="M132.104 67.4754H107.968C107.637 67.4754 107.319 67.3346 107.084 67.0841C106.85 66.8336 106.718 66.4938 106.718 66.1395C106.718 65.7852 106.85 65.4454 107.084 65.1949C107.319 64.9444 107.637 64.8036 107.968 64.8036H132.103C132.435 64.8036 132.753 64.9444 132.987 65.1949C133.222 65.4454 133.353 65.7852 133.353 66.1395C133.353 66.4938 133.222 66.8336 132.987 67.0841C132.753 67.3346 132.436 67.4754 132.104 67.4754Z" fill="#464646"/>
<path d="M138.356 61.6164H101.717C101.385 61.6164 101.067 61.4757 100.833 61.2251C100.598 60.9746 100.467 60.6348 100.467 60.2805C100.467 59.9262 100.598 59.5865 100.833 59.3359C101.067 59.0854 101.385 58.9447 101.717 58.9447H138.356C138.687 58.9447 139.005 59.0854 139.24 59.3359C139.474 59.5865 139.606 59.9262 139.606 60.2805C139.606 60.6348 139.474 60.9746 139.24 61.2251C139.005 61.4757 138.687 61.6164 138.356 61.6164Z" fill="#464646"/>
<path d="M102.533 55.7524H99.6524C99.3209 55.7524 99.0029 55.6117 98.7685 55.3612C98.5341 55.1106 98.4023 54.7708 98.4023 54.4166C98.4023 54.0623 98.5341 53.7225 98.7685 53.472C99.0029 53.2214 99.3209 53.0807 99.6524 53.0807H102.533C102.864 53.0807 103.182 53.2214 103.417 53.472C103.651 53.7225 103.783 54.0623 103.783 54.4166C103.783 54.7708 103.651 55.1106 103.417 55.3612C103.182 55.6117 102.864 55.7524 102.533 55.7524Z" fill="#212121"/>
<path d="M158.84 56.9528C158.001 56.9514 157.189 56.6392 156.541 56.0696C155.894 55.4999 155.451 54.7079 155.289 53.8286C155.127 52.9494 155.255 52.0372 155.652 51.2476C156.048 50.4579 156.689 49.8397 157.464 49.4982C158.24 49.1568 159.102 49.1132 159.904 49.375C160.706 49.6367 161.398 50.1876 161.863 50.9337C162.327 51.6799 162.536 52.5751 162.452 53.4668C162.368 54.3585 161.997 55.1915 161.403 55.8239C161.066 56.1831 160.666 56.4677 160.227 56.6614C159.787 56.8552 159.315 56.9542 158.84 56.9528ZM158.84 51.8778C158.579 51.8781 158.327 51.9749 158.127 52.1515C157.926 52.3281 157.788 52.5737 157.738 52.8464C157.687 53.1191 157.727 53.402 157.85 53.6471C157.973 53.8921 158.171 54.084 158.412 54.1901C158.652 54.2962 158.92 54.31 159.168 54.229C159.417 54.148 159.632 53.9774 159.776 53.7461C159.921 53.5148 159.986 53.2372 159.96 52.9606C159.934 52.6839 159.819 52.4254 159.635 52.229C159.531 52.1173 159.407 52.0288 159.27 51.9685C159.134 51.9082 158.987 51.8774 158.84 51.8778Z" fill="#1F4B3E"/>
<path d="M52.3981 62.2724C51.5595 62.271 50.7473 61.9588 50.0999 61.3891C49.4525 60.8195 49.01 60.0275 48.8477 59.1482C48.6855 58.269 48.8137 57.3568 49.2103 56.5672C49.6069 55.7775 50.2475 55.1593 51.0229 54.8178C51.7983 54.4764 52.6605 54.4328 53.4625 54.6946C54.2646 54.9563 54.9569 55.5072 55.4215 56.2533C55.8861 56.9995 56.0942 57.8947 56.0103 58.7864C55.9264 59.6781 55.5558 60.5111 54.9616 61.1435C54.6248 61.5027 54.2251 61.7873 53.7852 61.981C53.3453 62.1747 52.8739 62.2738 52.3981 62.2724ZM52.3981 57.1974C52.138 57.1977 51.886 57.2945 51.6851 57.4711C51.4842 57.6477 51.3469 57.8932 51.2964 58.166C51.2459 58.4387 51.2855 58.7216 51.4084 58.9667C51.5313 59.2117 51.7298 59.4036 51.9703 59.5097C52.2107 59.6158 52.4782 59.6296 52.727 59.5486C52.9759 59.4676 53.1907 59.297 53.3351 59.0657C53.4794 58.8344 53.5442 58.5568 53.5184 58.2802C53.4927 58.0035 53.378 57.745 53.1939 57.5486C53.0898 57.4362 52.9658 57.347 52.8292 57.2861C52.6926 57.2251 52.5461 57.1937 52.3981 57.1936V57.1974Z" fill="#1F4B3E"/>
<path d="M80.7595 110.217C80.5953 110.217 80.4327 110.182 80.2811 110.115C80.1294 110.048 79.9916 109.949 79.8757 109.825L78.3838 108.231L76.892 109.825C76.6565 110.07 76.3402 110.206 76.0116 110.204C75.683 110.201 75.3685 110.061 75.1362 109.813C74.9038 109.564 74.7723 109.228 74.77 108.877C74.7678 108.526 74.8951 108.188 75.1243 107.936L77.5 105.397C77.7344 105.147 78.0523 105.006 78.3838 105.006C78.7153 105.006 79.0332 105.147 79.2677 105.397L81.6434 107.936C81.8182 108.123 81.9372 108.361 81.9854 108.62C82.0336 108.879 82.0089 109.148 81.9143 109.392C81.8197 109.636 81.6595 109.845 81.4539 109.991C81.2484 110.138 81.0067 110.217 80.7595 110.217Z" fill="#1F4B3E"/>
<path d="M162.751 148.91C162.587 148.91 162.424 148.876 162.272 148.809C162.121 148.742 161.983 148.643 161.867 148.519L160.375 146.925L158.883 148.519C158.648 148.764 158.331 148.9 158.003 148.897C157.674 148.895 157.36 148.754 157.127 148.506C156.895 148.258 156.763 147.922 156.761 147.571C156.759 147.219 156.886 146.881 157.116 146.63L159.491 144.091C159.726 143.841 160.044 143.7 160.375 143.7C160.707 143.7 161.024 143.841 161.259 144.091L163.635 146.63C163.809 146.817 163.928 147.055 163.977 147.314C164.025 147.573 164 147.841 163.905 148.085C163.811 148.33 163.651 148.538 163.445 148.685C163.24 148.832 162.998 148.91 162.751 148.91Z" fill="#1F4B3E"/>
</g>
<defs>
<linearGradient id="paint0_linear_74_317" x1="34.0387" y1="28.8496" x2="152.829" y2="215.592" gradientUnits="userSpaceOnUse">
<stop stop-color="#DBE466"/>
<stop offset="1" stop-color="#C18F2C"/>
</linearGradient>
<clipPath id="clip0_74_317">
<rect width="232" height="184" fill="white"/>
</clipPath>
</defs>
</svg>
