<svg width="20" height="20" viewBox="0 0 20 20" fill="none" xmlns="http://www.w3.org/2000/svg">
<path d="M10.1963 3.89786H9.98633V4.34333H10.1963C10.2451 4.34333 10.2848 4.32286 10.3135 4.28196C10.3434 4.24101 10.3586 4.18708 10.3586 4.12012C10.3586 4.05411 10.3434 4.00107 10.3135 3.95923C10.2848 3.91833 10.2451 3.89786 10.1963 3.89786Z" fill="#1F4B3E"/>
<path d="M5.49805 4.82982C5.50355 4.80655 5.50902 4.77679 5.51148 4.74334C5.51516 4.70893 5.51699 4.66798 5.5182 4.61964C5.51941 4.5722 5.51941 4.51453 5.51941 4.44756C5.51941 4.38155 5.51941 4.32476 5.5182 4.27643C5.51699 4.2281 5.51516 4.18715 5.51148 4.15274C5.50902 4.11834 5.50355 4.09042 5.49805 4.06625C5.49195 4.04209 5.4834 4.02161 5.47301 4.00209C5.43578 3.93232 5.38086 3.89792 5.30637 3.89792H5.13672V4.99816H5.30641C5.38086 4.99816 5.43582 4.9628 5.47305 4.89399C5.4834 4.87447 5.49195 4.85304 5.49805 4.82982Z" fill="#1F4B3E"/>
<path d="M3.44594 4.28203C3.47523 4.24107 3.49051 4.18714 3.49051 4.12018C3.49051 4.05417 3.47523 4.00113 3.44594 3.95929C3.41664 3.91834 3.37758 3.89792 3.32812 3.89792H3.11816V4.34339H3.32812C3.37758 4.34339 3.41664 4.32292 3.44594 4.28203Z" fill="#1F4B3E"/>
<path d="M8.97949 4.71542H9.26332L9.12355 4.10155L8.97949 4.71542Z" fill="#1F4B3E"/>
<path d="M18.2288 0H1.77125C0.793477 0 0 1.20911 0 2.69905V17.301C0 18.791 0.793477 20 1.77125 20H18.2288C19.2066 20 20 18.791 20 17.301V2.69905C20 1.20911 19.2066 0 18.2288 0ZM17.0178 2.99482C17.5 2.99482 17.8906 3.59006 17.8906 4.32482C17.8906 5.05958 17.5 5.65476 17.0178 5.65476C16.5356 5.65476 16.145 5.05952 16.145 4.32476C16.145 3.59 16.5357 2.99482 17.0178 2.99482ZM14.6826 2.99482C15.1648 2.99482 15.5554 3.59006 15.5554 4.32482C15.5554 5.05958 15.1648 5.65476 14.6826 5.65476C14.2004 5.65476 13.8098 5.05952 13.8098 4.32476C13.8098 3.59 14.2004 2.99482 14.6826 2.99482ZM10.8118 3.60304H11.2238C11.3019 3.60304 11.3684 3.62351 11.4246 3.66256C11.4795 3.70256 11.5271 3.76488 11.5686 3.85042C11.5857 3.88667 11.5991 3.92482 11.6089 3.96577C11.6193 4.00577 11.6272 4.04946 11.6309 4.09786C11.6346 4.14625 11.6382 4.19923 11.6388 4.25691C11.64 4.31458 11.6407 4.37875 11.6407 4.44756C11.6407 4.51732 11.64 4.58149 11.6388 4.63917C11.6382 4.69685 11.6346 4.74893 11.6309 4.79726C11.6272 4.84559 11.6193 4.8903 11.6089 4.93024C11.5991 4.97024 11.5857 5.00929 11.5686 5.0456C11.5271 5.13024 11.4795 5.19345 11.4246 5.23256C11.3684 5.27256 11.3019 5.29208 11.2238 5.29208H10.8118V3.60304ZM7.71059 4.22994C7.71242 4.16482 7.71668 4.1053 7.7234 4.05042C7.73074 3.99554 7.74172 3.9453 7.75695 3.90066C7.77281 3.85417 7.79481 3.80952 7.82348 3.76673C7.86316 3.71089 7.9077 3.66625 7.95652 3.6356C8.00598 3.60488 8.06395 3.59 8.12988 3.59C8.23668 3.59 8.32766 3.63464 8.40332 3.72393C8.47898 3.81321 8.5266 3.9453 8.54797 4.12292H8.32031C8.30934 4.05315 8.28856 3.99548 8.25805 3.95083C8.22754 3.90619 8.1848 3.88387 8.12988 3.88387C8.09937 3.88387 8.07129 3.89131 8.0475 3.90714C8.02309 3.92298 8.00355 3.94435 7.98707 3.97131C7.97609 3.98804 7.96754 4.00851 7.96082 4.03083C7.9541 4.05315 7.94801 4.08107 7.94371 4.11643C7.93945 4.15083 7.93578 4.19458 7.93457 4.24756C7.93211 4.30059 7.9309 4.36756 7.9309 4.4475C7.9309 4.52839 7.93211 4.59536 7.93457 4.64839C7.93578 4.70143 7.93945 4.74512 7.94371 4.78048C7.94797 4.81399 7.9541 4.84375 7.96082 4.86512C7.96754 4.88744 7.97609 4.90696 7.98707 4.92464C8.00355 4.95161 8.02309 4.97208 8.0475 4.98881C8.07129 5.00369 8.09937 5.01208 8.12988 5.01208C8.1848 5.01208 8.22875 4.98976 8.25867 4.94417C8.2898 4.89952 8.31055 4.84185 8.32215 4.77304H8.54797C8.5266 4.94976 8.47898 5.08274 8.40332 5.17202C8.32762 5.26226 8.23668 5.30691 8.12988 5.30691C8.06395 5.30691 8.00598 5.29018 7.95652 5.26042C7.9077 5.22881 7.86313 5.18506 7.82348 5.12833C7.79481 5.08554 7.77281 5.04089 7.75695 4.99625C7.74168 4.94976 7.7307 4.89952 7.7234 4.8456C7.71668 4.79071 7.71242 4.73024 7.71059 4.66607C7.70938 4.60095 7.70813 4.52839 7.70813 4.4475C7.70813 4.36756 7.70934 4.295 7.71059 4.22994ZM6.37391 3.60304H7.19301V3.89786H6.89516V5.29202H6.67238V3.89786H6.37391V3.60304ZM5.97047 3.60304H6.19266V5.29202H5.97047V3.60304ZM4.91395 3.60304H5.32594C5.40406 3.60304 5.47 3.62351 5.52613 3.66256C5.58168 3.70256 5.62988 3.76488 5.6702 3.85042C5.6873 3.88667 5.7007 3.92482 5.71109 3.96577C5.72148 4.00577 5.72879 4.04946 5.73309 4.09786C5.73738 4.14625 5.7398 4.19923 5.74102 4.25691C5.74223 4.31458 5.74223 4.37875 5.74223 4.44756C5.74223 4.51732 5.74223 4.58149 5.74102 4.63917C5.7398 4.69685 5.73734 4.74893 5.73309 4.79726C5.72883 4.84559 5.72148 4.8903 5.71109 4.93024C5.7007 4.97018 5.6873 5.00929 5.6702 5.0456C5.62992 5.13024 5.58168 5.19345 5.52613 5.23256C5.46996 5.27256 5.40406 5.29208 5.32594 5.29208H4.91395V3.60304ZM3.9441 3.60304H4.69484V3.89786H4.16629V4.29315H4.61672V4.58798H4.16629V4.99815H4.69484V5.29208H3.9441V3.60304ZM2.89551 3.60304H3.34289C3.40086 3.60304 3.45215 3.61792 3.49793 3.64488C3.54371 3.6728 3.58277 3.71 3.61512 3.75649C3.64746 3.80298 3.67188 3.85786 3.68773 3.92018C3.70484 3.9825 3.71336 4.04946 3.71336 4.12012C3.71336 4.1806 3.70727 4.23452 3.69625 4.28196C3.68465 4.3294 3.66938 4.37125 3.65109 4.40845C3.63156 4.44565 3.60957 4.47726 3.58395 4.50333C3.55891 4.52941 3.53266 4.54982 3.50461 4.56381L3.75973 5.29202H3.50094L3.27875 4.61863H3.11824V5.29202H2.89547L2.89551 3.60304ZM2.35719 11.7708V10.4688H3.65602V11.7708H2.35719ZM3.65602 12.1875V13.5938H2.93824C2.61719 13.5938 2.35719 13.1976 2.35719 12.7083V12.1875H3.65602ZM2.35719 10.0521V8.75H3.65602V10.0521H2.35719ZM2.35719 8.33333V7.8125C2.35719 7.32327 2.61719 6.92708 2.93824 6.92708H3.65602V8.33333H2.35719ZM1.86281 4.44756C1.86281 4.36756 1.86402 4.295 1.86527 4.22994C1.86711 4.16482 1.87137 4.1053 1.87871 4.05042C1.88543 3.99554 1.89703 3.9453 1.91168 3.90066C1.92754 3.85417 1.94953 3.80952 1.97883 3.76673C2.01789 3.71089 2.06184 3.66625 2.11188 3.6356C2.1607 3.60488 2.21867 3.59 2.28461 3.59C2.39141 3.59 2.48297 3.63464 2.55867 3.72393C2.63375 3.81321 2.68137 3.9453 2.70273 4.12292H2.47566C2.46406 4.05315 2.44332 3.99548 2.4134 3.95083C2.38289 3.90619 2.34016 3.88387 2.28461 3.88387C2.25348 3.88387 2.22664 3.89131 2.20223 3.90714C2.17781 3.92298 2.15828 3.94435 2.14242 3.97131C2.13145 3.98804 2.12289 4.00851 2.11555 4.03083C2.10883 4.05315 2.10332 4.08107 2.09844 4.11643C2.09418 4.15083 2.09109 4.19458 2.0893 4.24756C2.0875 4.30054 2.08625 4.36756 2.08625 4.4475C2.08625 4.52839 2.08746 4.59536 2.0893 4.64839C2.09113 4.70143 2.09418 4.74512 2.09844 4.78048C2.10332 4.81399 2.10883 4.84375 2.11555 4.86512C2.12289 4.88744 2.13141 4.90696 2.14242 4.92464C2.15828 4.95161 2.17781 4.97208 2.20223 4.98881C2.22664 5.00369 2.25352 5.01208 2.28461 5.01208C2.34016 5.01208 2.38348 4.98976 2.4134 4.94417C2.44453 4.89952 2.46527 4.84185 2.47688 4.77304H2.7027C2.68133 4.94976 2.63371 5.08274 2.55863 5.17202C2.48293 5.26226 2.39141 5.30691 2.28457 5.30691C2.21863 5.30691 2.16066 5.29018 2.11184 5.26042C2.0618 5.22881 2.01785 5.18506 1.97879 5.12833C1.94949 5.08554 1.9275 5.04089 1.91164 4.99625C1.89699 4.94976 1.88539 4.89952 1.87867 4.8456C1.87133 4.79071 1.86707 4.73024 1.86523 4.66607C1.86402 4.60101 1.86281 4.52845 1.86281 4.44756ZM5 16.8248H1.875V15.8724H5V16.8248ZM5.15992 8.33333V8.75V9.28756V9.32292V10.0521V10.4688V11.0417V11.3709V11.7708V12.1875V12.9855V13.5938H3.92945V12.9855V12.1875V11.7708V11.3709V11.0417V10.4688V10.0521V9.32292V9.28756V8.75V8.33333V7.88131V6.92708H4.64723H5.15992H5.365H6.01441H6.15051C6.47156 6.92708 6.73219 7.32327 6.73219 7.8125V8.33333H6.01441H5.365H5.15992ZM5.43336 10.0521V8.75H6.73219V10.0521H5.43336ZM6.73219 10.4688V11.7708H5.43336V10.4688H6.73219ZM5.43336 13.5938V12.1875H6.73219V12.7083C6.73219 13.1976 6.47156 13.5938 6.15051 13.5938H5.43336ZM9.375 16.8248H6.25V15.8724H9.375V16.8248ZM9.38965 5.29202L9.3225 4.99345H8.91723L8.84766 5.29202H8.6157L9.03074 3.60304H9.20531L9.62281 5.29202H9.38965ZM10.1465 4.61869H9.98656V5.29208H9.76379V3.6031H10.2112C10.2686 3.6031 10.3204 3.61798 10.3662 3.64494C10.412 3.67286 10.4511 3.71006 10.4834 3.75655C10.5152 3.80304 10.5396 3.85792 10.556 3.92024C10.5731 3.98256 10.5811 4.04952 10.5811 4.12018C10.5811 4.18065 10.5755 4.23458 10.5639 4.28202C10.553 4.32946 10.5377 4.37131 10.5188 4.40851C10.4993 4.44571 10.4773 4.47732 10.4523 4.50339C10.4273 4.52946 10.4004 4.54988 10.3723 4.56387L10.6274 5.29208H10.3693L10.1465 4.61869ZM13.75 16.8248H10.625V15.8724H13.75V16.8248ZM18.125 16.8248H15V15.8724H18.125V16.8248ZM18.125 13.9676H11.875V13.0152H18.125V13.9676Z" fill="#1F4B3E"/>
<path d="M11.3966 4.82982C11.4015 4.80655 11.407 4.77679 11.4101 4.74334C11.4131 4.70893 11.4149 4.66798 11.4162 4.61964C11.4174 4.5722 11.4174 4.51453 11.4174 4.44756C11.4174 4.38155 11.4174 4.32476 11.4162 4.27643C11.4149 4.2281 11.4131 4.18715 11.4101 4.15274C11.407 4.11834 11.4015 4.09042 11.3966 4.06625C11.3905 4.04209 11.382 4.02161 11.371 4.00209C11.3344 3.93232 11.2782 3.89792 11.2044 3.89792H11.0347V4.99816H11.2044C11.2782 4.99816 11.3344 4.9628 11.371 4.89399C11.382 4.87447 11.3905 4.85304 11.3966 4.82982Z" fill="#1F4B3E"/>
</svg>
