<svg width="20" height="20" viewBox="0 0 20 20" fill="none" xmlns="http://www.w3.org/2000/svg">
<rect width="20" height="20" fill="#1F4B3E"/>
<path d="M7.575 12.175L13.475 6.275C13.6583 6.09167 13.8917 6 14.175 6C14.4583 6 14.6917 6.09167 14.875 6.275C15.0583 6.45833 15.15 6.69167 15.15 6.975C15.15 7.25833 15.0583 7.49167 14.875 7.675L8.275 14.275C8.075 14.475 7.84167 14.575 7.575 14.575C7.30833 14.575 7.075 14.475 6.875 14.275L4.275 11.675C4.09167 11.4917 4 11.2583 4 10.975C4 10.6917 4.09167 10.4583 4.275 10.275C4.45833 10.0917 4.69167 10 4.975 10C5.25833 10 5.49167 10.0917 5.675 10.275L7.575 12.175Z" fill="white"/>
</svg>
