<svg width="20" height="20" viewBox="0 0 20 20" fill="none" xmlns="http://www.w3.org/2000/svg">
<path d="M1 20H19C19.2652 20 19.5196 19.8946 19.7071 19.7071C19.8946 19.5196 20 19.2652 20 19V15C20 14.7348 19.8946 14.4805 19.7071 14.2929C19.5196 14.1054 19.2652 14 19 14H18V9.00007H19C19.2652 9.00007 19.5196 8.89471 19.7071 8.70718C19.8946 8.51964 20 8.26529 20 8.00008V5.00009C20 4.80661 19.9439 4.61728 19.8385 4.45505C19.7331 4.29282 19.5828 4.16465 19.406 4.0861L10.406 0.0861264C10.2782 0.0293406 10.1399 0 10 0C9.86013 0 9.72182 0.0293406 9.594 0.0861264L0.594 4.0861C0.417181 4.16465 0.266948 4.29282 0.161515 4.45505C0.0560811 4.61728 -2.45488e-05 4.80661 8.05774e-09 5.00009V8.00008C8.05774e-09 8.26529 0.105357 8.51964 0.292893 8.70718C0.48043 8.89471 0.734784 9.00007 1 9.00007H2V14H1C0.734784 14 0.48043 14.1054 0.292893 14.2929C0.105357 14.4805 8.05774e-09 14.7348 8.05774e-09 15V19C8.05774e-09 19.2652 0.105357 19.5196 0.292893 19.7071C0.48043 19.8946 0.734784 20 1 20ZM2 5.65009L10 2.09411L18 5.65009V7.00008H2V5.65009ZM16 9.00007V14H13.333V9.00007H16ZM11.333 9.00007V14H8.667V9.00007H11.333ZM6.667 9.00007V14H4V9.00007H6.667ZM2 16H18V18H2V16ZM12 5.00009C12 5.26531 11.8946 5.51966 11.7071 5.7072C11.5196 5.89473 11.2652 6.00009 11 6.00009H9C8.73478 6.00009 8.48043 5.89473 8.29289 5.7072C8.10536 5.51966 8 5.26531 8 5.00009C8 4.73488 8.10536 4.48053 8.29289 4.29299C8.48043 4.10546 8.73478 4.0001 9 4.0001H11C11.2652 4.0001 11.5196 4.10546 11.7071 4.29299C11.8946 4.48053 12 4.73488 12 5.00009Z" fill="#1F4B3E"/>
</svg>
