<svg width="20" height="20" viewBox="0 0 20 20" fill="none" xmlns="http://www.w3.org/2000/svg">
<path d="M7.14798 0L6.27354 7.01404H8.19282L10.3946 0.407473L7.14798 0ZM11.2601 0.360596L9.04484 7.01404L15.7578 7.01855L17.296 2.39345L11.2601 0.360596ZM6.23318 0.840188L3.00897 1.19357L3.64126 7.01404H5.46637L6.23318 0.840188ZM1.03139 5.66181C0.515695 5.66181 0.1713 6.05846 0.0775785 6.43709C0.0309417 6.6264 0.0573991 6.77965 0.110314 6.86529C0.16278 6.94643 0.235426 7.01404 0.493274 7.01404H2.8296L2.68161 5.66181H1.03139ZM17.0583 5.66181L16.6099 7.01404H18.7399C18.6233 6.78867 18.574 6.54977 18.6054 6.31088C18.6368 6.07649 18.7265 5.86464 18.8431 5.66181H17.0583ZM0 7.82538V18.9543C0 19.1842 0.125112 19.4546 0.330493 19.6619C0.536323 19.8693 0.807175 19.9955 1.03139 19.9955L18.2511 20C18.4753 20 18.7444 19.8738 18.9507 19.6664C19.1569 19.4591 19.2825 19.1887 19.2825 18.9588V15.7585H15.3812C13.4081 15.7585 13.4081 12.0624 15.3812 12.0624H19.2825V7.82989L0 7.82538ZM15.3812 12.8737C14.4843 12.8737 14.4843 14.9471 15.3812 14.9471H16.3812C15.9776 14.7759 15.6951 14.3747 15.6951 13.9104C15.6951 13.4462 15.9776 13.045 16.3812 12.8737H15.3812ZM17.2511 12.8737C17.6547 13.045 17.9372 13.4462 17.9372 13.9104C17.9372 14.3747 17.6547 14.7759 17.2511 14.9471H20V12.8737H17.2511ZM16.8161 13.5949C16.6368 13.5949 16.5022 13.7301 16.5022 13.9104C16.5022 14.0907 16.6368 14.226 16.8161 14.226C16.9955 14.226 17.13 14.0907 17.13 13.9104C17.13 13.7301 16.9955 13.5949 16.8161 13.5949Z" fill="#1F4B3E"/>
</svg>
